<svg id="Ucodia_Diamonds_Logo" data-name="Ucodia Diamonds Logo" xmlns="http://www.w3.org/2000/svg" xmlns:xlink="http://www.w3.org/1999/xlink" width="350" height="100" viewBox="0 0 350 100">
  <defs>
    <style>
      .cls-1 {
        fill: none;
      }

      .cls-2 {
        clip-path: url(#clip-path);
      }

      .cls-3 {
        fill: #fff;
      }

      .cls-4 {
        opacity: 0.2;
      }

      .cls-5 {
        clip-path: url(#clip-path-4);
      }

      .cls-6 {
        fill: #00aeef;
      }

      .cls-7 {
        clip-path: url(#clip-path-5);
      }

      .cls-8 {
        clip-path: url(#clip-path-6);
      }

      .cls-9 {
        clip-path: url(#clip-path-7);
      }

      .cls-10 {
        clip-path: url(#clip-path-8);
      }

      .cls-11 {
        clip-path: url(#clip-path-9);
      }

      .cls-12 {
        fill: #fff200;
      }

      .cls-13 {
        clip-path: url(#clip-path-11);
      }

      .cls-14 {
        clip-path: url(#clip-path-12);
      }

      .cls-15 {
        clip-path: url(#clip-path-13);
      }

      .cls-16 {
        clip-path: url(#clip-path-14);
      }

      .cls-17 {
        clip-path: url(#clip-path-15);
      }

      .cls-18 {
        fill: #ec008c;
      }

      .cls-19 {
        clip-path: url(#clip-path-18);
      }

      .cls-20 {
        clip-path: url(#clip-path-19);
      }

      .cls-21 {
        clip-path: url(#clip-path-20);
      }

      .cls-22 {
        clip-path: url(#clip-path-21);
      }

      .cls-23 {
        clip-path: url(#clip-path-25);
      }

      .cls-24 {
        clip-path: url(#clip-path-26);
      }

      .cls-25 {
        clip-path: url(#clip-path-27);
      }

      .cls-26 {
        clip-path: url(#clip-path-31);
      }

      .cls-27 {
        clip-path: url(#clip-path-32);
      }

      .cls-28 {
        clip-path: url(#clip-path-33);
      }

      .cls-29 {
        clip-path: url(#clip-path-38);
      }

      .cls-30 {
        clip-path: url(#clip-path-39);
      }

      .cls-31 {
        clip-path: url(#clip-path-45);
      }

      .cls-32 {
        clip-path: url(#clip-path-52);
      }

      .cls-33 {
        clip-path: url(#clip-path-55);
      }

      .cls-34 {
        clip-path: url(#clip-path-56);
      }

      .cls-35 {
        clip-path: url(#clip-path-57);
      }

      .cls-36 {
        clip-path: url(#clip-path-58);
      }

      .cls-37 {
        clip-path: url(#clip-path-59);
      }

      .cls-38 {
        clip-path: url(#clip-path-60);
      }

      .cls-39 {
        clip-path: url(#clip-path-62);
      }

      .cls-40 {
        clip-path: url(#clip-path-63);
      }

      .cls-41 {
        clip-path: url(#clip-path-64);
      }

      .cls-42 {
        clip-path: url(#clip-path-65);
      }

      .cls-43 {
        clip-path: url(#clip-path-66);
      }

      .cls-44 {
        clip-path: url(#clip-path-69);
      }

      .cls-45 {
        clip-path: url(#clip-path-70);
      }

      .cls-46 {
        clip-path: url(#clip-path-71);
      }

      .cls-47 {
        clip-path: url(#clip-path-72);
      }

      .cls-48 {
        clip-path: url(#clip-path-76);
      }

      .cls-49 {
        clip-path: url(#clip-path-77);
      }

      .cls-50 {
        clip-path: url(#clip-path-78);
      }

      .cls-51 {
        clip-path: url(#clip-path-82);
      }

      .cls-52 {
        clip-path: url(#clip-path-83);
      }

      .cls-53 {
        clip-path: url(#clip-path-84);
      }

      .cls-54 {
        clip-path: url(#clip-path-89);
      }

      .cls-55 {
        clip-path: url(#clip-path-90);
      }

      .cls-56 {
        clip-path: url(#clip-path-96);
      }

      .cls-57 {
        clip-path: url(#clip-path-103);
      }

      .cls-58 {
        clip-path: url(#clip-path-106);
      }

      .cls-59 {
        clip-path: url(#clip-path-107);
      }

      .cls-60 {
        clip-path: url(#clip-path-108);
      }

      .cls-61 {
        clip-path: url(#clip-path-109);
      }

      .cls-62 {
        clip-path: url(#clip-path-110);
      }

      .cls-63 {
        clip-path: url(#clip-path-111);
      }

      .cls-64 {
        clip-path: url(#clip-path-113);
      }

      .cls-65 {
        clip-path: url(#clip-path-114);
      }

      .cls-66 {
        clip-path: url(#clip-path-115);
      }

      .cls-67 {
        clip-path: url(#clip-path-116);
      }

      .cls-68 {
        clip-path: url(#clip-path-117);
      }

      .cls-69 {
        clip-path: url(#clip-path-120);
      }

      .cls-70 {
        clip-path: url(#clip-path-121);
      }

      .cls-71 {
        clip-path: url(#clip-path-122);
      }

      .cls-72 {
        clip-path: url(#clip-path-123);
      }

      .cls-73 {
        clip-path: url(#clip-path-127);
      }

      .cls-74 {
        clip-path: url(#clip-path-128);
      }

      .cls-75 {
        clip-path: url(#clip-path-129);
      }

      .cls-76 {
        clip-path: url(#clip-path-133);
      }

      .cls-77 {
        clip-path: url(#clip-path-134);
      }

      .cls-78 {
        clip-path: url(#clip-path-135);
      }

      .cls-79 {
        clip-path: url(#clip-path-140);
      }

      .cls-80 {
        clip-path: url(#clip-path-141);
      }

      .cls-81 {
        clip-path: url(#clip-path-147);
      }

      .cls-82 {
        clip-path: url(#clip-path-154);
      }

      .cls-83 {
        clip-path: url(#clip-path-155);
      }
    </style>
    <clipPath id="clip-path">
      <rect class="cls-1" x="250" width="100" height="100"/>
    </clipPath>
    <clipPath id="clip-path-4">
      <rect class="cls-1" x="264.64" width="35.36" height="50"/>
    </clipPath>
    <clipPath id="clip-path-5">
      <rect class="cls-1" x="300" width="50" height="50"/>
    </clipPath>
    <clipPath id="clip-path-6">
      <rect class="cls-1" x="300" width="35.35" height="50"/>
    </clipPath>
    <clipPath id="clip-path-7">
      <rect class="cls-1" x="300" width="35.35" height="85.36"/>
    </clipPath>
    <clipPath id="clip-path-8">
      <rect class="cls-1" x="250" width="50" height="50"/>
    </clipPath>
    <clipPath id="clip-path-9">
      <rect class="cls-1" x="264.64" width="35.36" height="85.36"/>
    </clipPath>
    <clipPath id="clip-path-11">
      <rect class="cls-1" x="264.64" y="14.65" width="85.36" height="35.35"/>
    </clipPath>
    <clipPath id="clip-path-12">
      <rect class="cls-1" x="264.64" y="14.65" width="70.71" height="35.35"/>
    </clipPath>
    <clipPath id="clip-path-13">
      <rect class="cls-1" x="264.64" y="14.65" width="35.36" height="85.35"/>
    </clipPath>
    <clipPath id="clip-path-14">
      <rect class="cls-1" x="250" y="14.65" width="50" height="35.35"/>
    </clipPath>
    <clipPath id="clip-path-15">
      <rect class="cls-1" x="264.64" y="14.65" width="35.36" height="70.71"/>
    </clipPath>
    <clipPath id="clip-path-18">
      <rect class="cls-1" x="300" y="14.65" width="50" height="35.35"/>
    </clipPath>
    <clipPath id="clip-path-19">
      <rect class="cls-1" x="300" y="50" width="50" height="50"/>
    </clipPath>
    <clipPath id="clip-path-20">
      <rect class="cls-1" x="300" y="50" width="50" height="35.36"/>
    </clipPath>
    <clipPath id="clip-path-21">
      <rect class="cls-1" x="264.64" y="50" width="85.36" height="35.36"/>
    </clipPath>
    <clipPath id="clip-path-25">
      <rect class="cls-1" x="300" y="14.65" width="35.35" height="85.35"/>
    </clipPath>
    <clipPath id="clip-path-26">
      <rect class="cls-1" x="300" y="14.65" width="35.35" height="70.71"/>
    </clipPath>
    <clipPath id="clip-path-27">
      <rect class="cls-1" x="250" y="14.65" width="85.35" height="35.35"/>
    </clipPath>
    <clipPath id="clip-path-31">
      <rect class="cls-1" x="300" y="50" width="35.35" height="50"/>
    </clipPath>
    <clipPath id="clip-path-32">
      <rect class="cls-1" x="250" y="50" width="50" height="50"/>
    </clipPath>
    <clipPath id="clip-path-33">
      <rect class="cls-1" x="264.64" y="50" width="35.36" height="50"/>
    </clipPath>
    <clipPath id="clip-path-38">
      <rect class="cls-1" x="250" y="50" width="85.35" height="35.36"/>
    </clipPath>
    <clipPath id="clip-path-39">
      <rect class="cls-1" x="264.64" y="50" width="70.71" height="35.36"/>
    </clipPath>
    <clipPath id="clip-path-45">
      <rect class="cls-1" x="250" y="50" width="50" height="35.36"/>
    </clipPath>
    <clipPath id="clip-path-52">
      <rect class="cls-1" x="125" width="100" height="100"/>
    </clipPath>
    <clipPath id="clip-path-55">
      <rect class="cls-1" x="125" y="50" width="85.35" height="35.36"/>
    </clipPath>
    <clipPath id="clip-path-56">
      <rect class="cls-1" x="125" width="50" height="50"/>
    </clipPath>
    <clipPath id="clip-path-57">
      <rect class="cls-1" x="125" y="50" width="50" height="35.36"/>
    </clipPath>
    <clipPath id="clip-path-58">
      <rect class="cls-1" x="125" y="14.65" width="50" height="35.35"/>
    </clipPath>
    <clipPath id="clip-path-59">
      <rect class="cls-1" x="125" y="50" width="50" height="50"/>
    </clipPath>
    <clipPath id="clip-path-60">
      <rect class="cls-1" x="125" y="14.65" width="85.35" height="35.35"/>
    </clipPath>
    <clipPath id="clip-path-62">
      <rect class="cls-1" x="175" width="35.35" height="85.36"/>
    </clipPath>
    <clipPath id="clip-path-63">
      <rect class="cls-1" x="139.64" y="50" width="70.71" height="35.36"/>
    </clipPath>
    <clipPath id="clip-path-64">
      <rect class="cls-1" x="175" y="50" width="50" height="35.36"/>
    </clipPath>
    <clipPath id="clip-path-65">
      <rect class="cls-1" x="175" y="50" width="35.35" height="50"/>
    </clipPath>
    <clipPath id="clip-path-66">
      <rect class="cls-1" x="175" y="14.65" width="35.35" height="70.71"/>
    </clipPath>
    <clipPath id="clip-path-69">
      <rect class="cls-1" x="139.64" width="35.36" height="85.36"/>
    </clipPath>
    <clipPath id="clip-path-70">
      <rect class="cls-1" x="175" width="50" height="50"/>
    </clipPath>
    <clipPath id="clip-path-71">
      <rect class="cls-1" x="139.64" width="35.36" height="50"/>
    </clipPath>
    <clipPath id="clip-path-72">
      <rect class="cls-1" x="175" width="35.35" height="50"/>
    </clipPath>
    <clipPath id="clip-path-76">
      <rect class="cls-1" x="139.64" y="50" width="85.36" height="35.36"/>
    </clipPath>
    <clipPath id="clip-path-77">
      <rect class="cls-1" x="139.64" y="14.65" width="35.36" height="70.71"/>
    </clipPath>
    <clipPath id="clip-path-78">
      <rect class="cls-1" x="139.64" y="50" width="35.36" height="50"/>
    </clipPath>
    <clipPath id="clip-path-82">
      <rect class="cls-1" x="139.64" y="14.65" width="85.36" height="35.35"/>
    </clipPath>
    <clipPath id="clip-path-83">
      <rect class="cls-1" x="175" y="50" width="50" height="50"/>
    </clipPath>
    <clipPath id="clip-path-84">
      <rect class="cls-1" x="175" y="14.65" width="50" height="35.35"/>
    </clipPath>
    <clipPath id="clip-path-89">
      <rect class="cls-1" x="139.64" y="14.65" width="35.36" height="85.35"/>
    </clipPath>
    <clipPath id="clip-path-90">
      <rect class="cls-1" x="139.64" y="14.65" width="70.71" height="35.35"/>
    </clipPath>
    <clipPath id="clip-path-96">
      <rect class="cls-1" x="175" y="14.65" width="35.35" height="85.35"/>
    </clipPath>
    <clipPath id="clip-path-103">
      <rect class="cls-1" width="100" height="100"/>
    </clipPath>
    <clipPath id="clip-path-106">
      <rect class="cls-1" x="14.64" y="14.65" width="35.36" height="85.35"/>
    </clipPath>
    <clipPath id="clip-path-107">
      <rect class="cls-1" y="50" width="50" height="50"/>
    </clipPath>
    <clipPath id="clip-path-108">
      <rect class="cls-1" x="50" y="14.65" width="35.35" height="85.35"/>
    </clipPath>
    <clipPath id="clip-path-109">
      <rect class="cls-1" x="50" y="50" width="35.35" height="50"/>
    </clipPath>
    <clipPath id="clip-path-110">
      <rect class="cls-1" x="50" y="50" width="50" height="50"/>
    </clipPath>
    <clipPath id="clip-path-111">
      <rect class="cls-1" x="14.64" y="50" width="35.36" height="50"/>
    </clipPath>
    <clipPath id="clip-path-113">
      <rect class="cls-1" y="14.65" width="50" height="35.35"/>
    </clipPath>
    <clipPath id="clip-path-114">
      <rect class="cls-1" x="14.64" y="14.65" width="70.71" height="35.35"/>
    </clipPath>
    <clipPath id="clip-path-115">
      <rect class="cls-1" x="14.64" width="35.36" height="50"/>
    </clipPath>
    <clipPath id="clip-path-116">
      <rect class="cls-1" x="14.64" y="14.65" width="85.36" height="35.35"/>
    </clipPath>
    <clipPath id="clip-path-117">
      <rect class="cls-1" x="14.64" y="14.65" width="35.36" height="70.71"/>
    </clipPath>
    <clipPath id="clip-path-120">
      <rect class="cls-1" y="14.65" width="85.35" height="35.35"/>
    </clipPath>
    <clipPath id="clip-path-121">
      <rect class="cls-1" width="50" height="50"/>
    </clipPath>
    <clipPath id="clip-path-122">
      <rect class="cls-1" y="50" width="85.35" height="35.36"/>
    </clipPath>
    <clipPath id="clip-path-123">
      <rect class="cls-1" y="50" width="50" height="35.36"/>
    </clipPath>
    <clipPath id="clip-path-127">
      <rect class="cls-1" x="50" width="35.35" height="50"/>
    </clipPath>
    <clipPath id="clip-path-128">
      <rect class="cls-1" x="50" y="14.65" width="35.35" height="70.71"/>
    </clipPath>
    <clipPath id="clip-path-129">
      <rect class="cls-1" x="50" y="14.65" width="50" height="35.35"/>
    </clipPath>
    <clipPath id="clip-path-133">
      <rect class="cls-1" x="50" width="35.35" height="85.36"/>
    </clipPath>
    <clipPath id="clip-path-134">
      <rect class="cls-1" x="50" width="50" height="50"/>
    </clipPath>
    <clipPath id="clip-path-135">
      <rect class="cls-1" x="14.64" width="35.36" height="85.36"/>
    </clipPath>
    <clipPath id="clip-path-140">
      <rect class="cls-1" x="50" y="50" width="50" height="35.36"/>
    </clipPath>
    <clipPath id="clip-path-141">
      <rect class="cls-1" x="14.64" y="50" width="70.71" height="35.36"/>
    </clipPath>
    <clipPath id="clip-path-147">
      <rect class="cls-1" x="14.64" y="50" width="85.36" height="35.36"/>
    </clipPath>
    <clipPath id="clip-path-154">
      <rect class="cls-1" x="25" y="1.34" width="300" height="97.31"/>
    </clipPath>
    <clipPath id="clip-path-155">
      <rect class="cls-1" x="25" y="1.34" width="300" height="97.31"/>
    </clipPath>
  </defs>
  <title>logo-new</title>
  <g id="Diamond_3_RGB_" data-name="Diamond 3 (RGB)">
    <g class="cls-2">
      <g class="cls-2">
        <polygon class="cls-3" points="300 0 264.64 14.64 250 50 264.64 85.36 300 100 335.36 85.36 350 50 335.36 14.64 300 0"/>
        <g class="cls-2">
          <g class="cls-4">
            <g class="cls-5">
              <polygon class="cls-6" points="300 0 300 50 264.64 14.64 300 0"/>
            </g>
          </g>
          <g class="cls-4">
            <g class="cls-7">
              <polygon class="cls-6" points="300 0 300 50 350 50 300 0"/>
            </g>
          </g>
          <g class="cls-4">
            <g class="cls-8">
              <polygon class="cls-6" points="300 0 300 50 335.36 14.64 300 0"/>
            </g>
          </g>
          <g class="cls-4">
            <g class="cls-9">
              <polygon class="cls-6" points="300 0 300 50 335.36 85.36 300 0"/>
            </g>
          </g>
          <g class="cls-4">
            <g class="cls-10">
              <polygon class="cls-6" points="300 0 300 50 250 50 300 0"/>
            </g>
          </g>
          <g class="cls-4">
            <g class="cls-11">
              <polygon class="cls-6" points="300 0 300 50 264.64 85.36 300 0"/>
            </g>
          </g>
          <g class="cls-4">
            <g class="cls-5">
              <polygon class="cls-12" points="264.64 14.64 300 50 300 0 264.64 14.64"/>
            </g>
          </g>
          <g class="cls-4">
            <g class="cls-13">
              <polygon class="cls-12" points="264.64 14.64 300 50 350 50 264.64 14.64"/>
            </g>
          </g>
          <g class="cls-4">
            <g class="cls-14">
              <polygon class="cls-12" points="264.64 14.64 300 50 335.36 14.64 264.64 14.64"/>
            </g>
          </g>
          <g class="cls-4">
            <g class="cls-15">
              <polygon class="cls-12" points="264.64 14.64 300 50 300 100 264.64 14.64"/>
            </g>
          </g>
          <g class="cls-4">
            <g class="cls-16">
              <polygon class="cls-12" points="264.64 14.64 300 50 250 50 264.64 14.64"/>
            </g>
          </g>
          <g class="cls-4">
            <g class="cls-17">
              <polygon class="cls-12" points="264.64 14.64 300 50 264.64 85.36 264.64 14.64"/>
            </g>
          </g>
          <g class="cls-4">
            <g class="cls-7">
              <polygon class="cls-18" points="350 50 300 50 300 0 350 50"/>
            </g>
          </g>
          <g class="cls-4">
            <g class="cls-13">
              <polygon class="cls-18" points="350 50 300 50 264.64 14.64 350 50"/>
            </g>
          </g>
          <g class="cls-4">
            <g class="cls-19">
              <polygon class="cls-18" points="350 50 300 50 335.36 14.64 350 50"/>
            </g>
          </g>
          <g class="cls-4">
            <g class="cls-20">
              <polygon class="cls-18" points="350 50 300 50 300 100 350 50"/>
            </g>
          </g>
          <g class="cls-4">
            <g class="cls-21">
              <polygon class="cls-18" points="350 50 300 50 335.36 85.36 350 50"/>
            </g>
          </g>
          <g class="cls-4">
            <g class="cls-22">
              <polygon class="cls-18" points="350 50 300 50 264.64 85.36 350 50"/>
            </g>
          </g>
          <g class="cls-4">
            <g class="cls-8">
              <polygon class="cls-6" points="335.36 14.64 300 50 300 0 335.36 14.64"/>
            </g>
          </g>
          <g class="cls-4">
            <g class="cls-14">
              <polygon class="cls-6" points="335.36 14.64 300 50 264.64 14.64 335.36 14.64"/>
            </g>
          </g>
          <g class="cls-4">
            <g class="cls-19">
              <polygon class="cls-6" points="335.36 14.64 300 50 350 50 335.36 14.64"/>
            </g>
          </g>
          <g class="cls-4">
            <g class="cls-23">
              <polygon class="cls-6" points="335.36 14.64 300 50 300 100 335.36 14.64"/>
            </g>
          </g>
          <g class="cls-4">
            <g class="cls-24">
              <polygon class="cls-6" points="335.36 14.64 300 50 335.36 85.36 335.36 14.64"/>
            </g>
          </g>
          <g class="cls-4">
            <g class="cls-25">
              <polygon class="cls-6" points="335.36 14.64 300 50 250 50 335.36 14.64"/>
            </g>
          </g>
          <g class="cls-4">
            <g class="cls-15">
              <polygon class="cls-12" points="300 100 300 50 264.64 14.64 300 100"/>
            </g>
          </g>
          <g class="cls-4">
            <g class="cls-20">
              <polygon class="cls-12" points="300 100 300 50 350 50 300 100"/>
            </g>
          </g>
          <g class="cls-4">
            <g class="cls-23">
              <polygon class="cls-12" points="300 100 300 50 335.36 14.64 300 100"/>
            </g>
          </g>
          <g class="cls-4">
            <g class="cls-26">
              <polygon class="cls-12" points="300 100 300 50 335.36 85.36 300 100"/>
            </g>
          </g>
          <g class="cls-4">
            <g class="cls-27">
              <polygon class="cls-12" points="300 100 300 50 250 50 300 100"/>
            </g>
          </g>
          <g class="cls-4">
            <g class="cls-28">
              <polygon class="cls-12" points="300 100 300 50 264.64 85.36 300 100"/>
            </g>
          </g>
          <g class="cls-4">
            <g class="cls-9">
              <polygon class="cls-18" points="335.36 85.36 300 50 300 0 335.36 85.36"/>
            </g>
          </g>
          <g class="cls-4">
            <g class="cls-21">
              <polygon class="cls-18" points="335.36 85.36 300 50 350 50 335.36 85.36"/>
            </g>
          </g>
          <g class="cls-4">
            <g class="cls-24">
              <polygon class="cls-18" points="335.36 85.36 300 50 335.36 14.64 335.36 85.36"/>
            </g>
          </g>
          <g class="cls-4">
            <g class="cls-26">
              <polygon class="cls-18" points="335.36 85.36 300 50 300 100 335.36 85.36"/>
            </g>
          </g>
          <g class="cls-4">
            <g class="cls-29">
              <polygon class="cls-18" points="335.36 85.36 300 50 250 50 335.36 85.36"/>
            </g>
          </g>
          <g class="cls-4">
            <g class="cls-30">
              <polygon class="cls-18" points="335.36 85.36 300 50 264.64 85.36 335.36 85.36"/>
            </g>
          </g>
          <g class="cls-4">
            <g class="cls-10">
              <polygon class="cls-6" points="250 50 300 50 300 0 250 50"/>
            </g>
          </g>
          <g class="cls-4">
            <g class="cls-16">
              <polygon class="cls-6" points="250 50 300 50 264.64 14.64 250 50"/>
            </g>
          </g>
          <g class="cls-4">
            <g class="cls-25">
              <polygon class="cls-6" points="250 50 300 50 335.36 14.64 250 50"/>
            </g>
          </g>
          <g class="cls-4">
            <g class="cls-27">
              <polygon class="cls-6" points="250 50 300 50 300 100 250 50"/>
            </g>
          </g>
          <g class="cls-4">
            <g class="cls-29">
              <polygon class="cls-6" points="250 50 300 50 335.36 85.36 250 50"/>
            </g>
          </g>
          <g class="cls-4">
            <g class="cls-31">
              <polygon class="cls-6" points="250 50 300 50 264.64 85.36 250 50"/>
            </g>
          </g>
          <g class="cls-4">
            <g class="cls-11">
              <polygon class="cls-12" points="264.64 85.36 300 50 300 0 264.64 85.36"/>
            </g>
          </g>
          <g class="cls-4">
            <g class="cls-17">
              <polygon class="cls-12" points="264.64 85.36 300 50 264.64 14.64 264.64 85.36"/>
            </g>
          </g>
          <g class="cls-4">
            <g class="cls-22">
              <polygon class="cls-12" points="264.64 85.36 300 50 350 50 264.64 85.36"/>
            </g>
          </g>
          <g class="cls-4">
            <g class="cls-28">
              <polygon class="cls-12" points="264.64 85.36 300 50 300 100 264.64 85.36"/>
            </g>
          </g>
          <g class="cls-4">
            <g class="cls-30">
              <polygon class="cls-12" points="264.64 85.36 300 50 335.36 85.36 264.64 85.36"/>
            </g>
          </g>
          <g class="cls-4">
            <g class="cls-31">
              <polygon class="cls-12" points="264.64 85.36 300 50 250 50 264.64 85.36"/>
            </g>
          </g>
        </g>
      </g>
    </g>
  </g>
  <g id="Diamond_2_RGB_" data-name="Diamond 2 (RGB)">
    <g class="cls-32">
      <g class="cls-32">
        <polygon class="cls-3" points="175 0 139.65 14.64 125 50 139.65 85.36 175 100 210.35 85.36 225 50 210.35 14.64 175 0"/>
        <g class="cls-32">
          <g class="cls-4">
            <g class="cls-33">
              <polygon class="cls-6" points="125 50 175 50 210.35 85.36 125 50"/>
            </g>
          </g>
          <g class="cls-4">
            <g class="cls-34">
              <polygon class="cls-6" points="125 50 175 50 175 0 125 50"/>
            </g>
          </g>
          <g class="cls-4">
            <g class="cls-35">
              <polygon class="cls-6" points="125 50 175 50 139.65 85.36 125 50"/>
            </g>
          </g>
          <g class="cls-4">
            <g class="cls-36">
              <polygon class="cls-6" points="125 50 175 50 139.65 14.64 125 50"/>
            </g>
          </g>
          <g class="cls-4">
            <g class="cls-37">
              <polygon class="cls-6" points="125 50 175 50 175 100 125 50"/>
            </g>
          </g>
          <g class="cls-4">
            <g class="cls-38">
              <polygon class="cls-6" points="125 50 175 50 210.35 14.64 125 50"/>
            </g>
          </g>
          <g class="cls-4">
            <g class="cls-33">
              <polygon class="cls-12" points="210.35 85.36 175 50 125 50 210.35 85.36"/>
            </g>
          </g>
          <g class="cls-4">
            <g class="cls-39">
              <polygon class="cls-12" points="210.35 85.36 175 50 175 0 210.35 85.36"/>
            </g>
          </g>
          <g class="cls-4">
            <g class="cls-40">
              <polygon class="cls-12" points="210.35 85.36 175 50 139.65 85.36 210.35 85.36"/>
            </g>
          </g>
          <g class="cls-4">
            <g class="cls-41">
              <polygon class="cls-12" points="210.35 85.36 175 50 225 50 210.35 85.36"/>
            </g>
          </g>
          <g class="cls-4">
            <g class="cls-42">
              <polygon class="cls-12" points="210.35 85.36 175 50 175 100 210.35 85.36"/>
            </g>
          </g>
          <g class="cls-4">
            <g class="cls-43">
              <polygon class="cls-12" points="210.35 85.36 175 50 210.35 14.64 210.35 85.36"/>
            </g>
          </g>
          <g class="cls-4">
            <g class="cls-34">
              <polygon class="cls-18" points="175 0 175 50 125 50 175 0"/>
            </g>
          </g>
          <g class="cls-4">
            <g class="cls-39">
              <polygon class="cls-18" points="175 0 175 50 210.35 85.36 175 0"/>
            </g>
          </g>
          <g class="cls-4">
            <g class="cls-44">
              <polygon class="cls-18" points="175 0 175 50 139.65 85.36 175 0"/>
            </g>
          </g>
          <g class="cls-4">
            <g class="cls-45">
              <polygon class="cls-18" points="175 0 175 50 225 50 175 0"/>
            </g>
          </g>
          <g class="cls-4">
            <g class="cls-46">
              <polygon class="cls-18" points="175 0 175 50 139.65 14.64 175 0"/>
            </g>
          </g>
          <g class="cls-4">
            <g class="cls-47">
              <polygon class="cls-18" points="175 0 175 50 210.35 14.64 175 0"/>
            </g>
          </g>
          <g class="cls-4">
            <g class="cls-35">
              <polygon class="cls-6" points="139.65 85.36 175 50 125 50 139.65 85.36"/>
            </g>
          </g>
          <g class="cls-4">
            <g class="cls-40">
              <polygon class="cls-6" points="139.65 85.36 175 50 210.35 85.36 139.65 85.36"/>
            </g>
          </g>
          <g class="cls-4">
            <g class="cls-44">
              <polygon class="cls-6" points="139.65 85.36 175 50 175 0 139.65 85.36"/>
            </g>
          </g>
          <g class="cls-4">
            <g class="cls-48">
              <polygon class="cls-6" points="139.65 85.36 175 50 225 50 139.65 85.36"/>
            </g>
          </g>
          <g class="cls-4">
            <g class="cls-49">
              <polygon class="cls-6" points="139.65 85.36 175 50 139.65 14.64 139.65 85.36"/>
            </g>
          </g>
          <g class="cls-4">
            <g class="cls-50">
              <polygon class="cls-6" points="139.65 85.36 175 50 175 100 139.65 85.36"/>
            </g>
          </g>
          <g class="cls-4">
            <g class="cls-41">
              <polygon class="cls-12" points="225 50 175 50 210.35 85.36 225 50"/>
            </g>
          </g>
          <g class="cls-4">
            <g class="cls-45">
              <polygon class="cls-12" points="225 50 175 50 175 0 225 50"/>
            </g>
          </g>
          <g class="cls-4">
            <g class="cls-48">
              <polygon class="cls-12" points="225 50 175 50 139.65 85.36 225 50"/>
            </g>
          </g>
          <g class="cls-4">
            <g class="cls-51">
              <polygon class="cls-12" points="225 50 175 50 139.65 14.64 225 50"/>
            </g>
          </g>
          <g class="cls-4">
            <g class="cls-52">
              <polygon class="cls-12" points="225 50 175 50 175 100 225 50"/>
            </g>
          </g>
          <g class="cls-4">
            <g class="cls-53">
              <polygon class="cls-12" points="225 50 175 50 210.35 14.64 225 50"/>
            </g>
          </g>
          <g class="cls-4">
            <g class="cls-36">
              <polygon class="cls-18" points="139.65 14.64 175 50 125 50 139.65 14.64"/>
            </g>
          </g>
          <g class="cls-4">
            <g class="cls-46">
              <polygon class="cls-18" points="139.65 14.64 175 50 175 0 139.65 14.64"/>
            </g>
          </g>
          <g class="cls-4">
            <g class="cls-49">
              <polygon class="cls-18" points="139.65 14.64 175 50 139.65 85.36 139.65 14.64"/>
            </g>
          </g>
          <g class="cls-4">
            <g class="cls-51">
              <polygon class="cls-18" points="139.65 14.64 175 50 225 50 139.65 14.64"/>
            </g>
          </g>
          <g class="cls-4">
            <g class="cls-54">
              <polygon class="cls-18" points="139.65 14.64 175 50 175 100 139.65 14.64"/>
            </g>
          </g>
          <g class="cls-4">
            <g class="cls-55">
              <polygon class="cls-18" points="139.65 14.64 175 50 210.35 14.64 139.65 14.64"/>
            </g>
          </g>
          <g class="cls-4">
            <g class="cls-37">
              <polygon class="cls-6" points="175 100 175 50 125 50 175 100"/>
            </g>
          </g>
          <g class="cls-4">
            <g class="cls-42">
              <polygon class="cls-6" points="175 100 175 50 210.35 85.36 175 100"/>
            </g>
          </g>
          <g class="cls-4">
            <g class="cls-50">
              <polygon class="cls-6" points="175 100 175 50 139.65 85.36 175 100"/>
            </g>
          </g>
          <g class="cls-4">
            <g class="cls-52">
              <polygon class="cls-6" points="175 100 175 50 225 50 175 100"/>
            </g>
          </g>
          <g class="cls-4">
            <g class="cls-54">
              <polygon class="cls-6" points="175 100 175 50 139.65 14.64 175 100"/>
            </g>
          </g>
          <g class="cls-4">
            <g class="cls-56">
              <polygon class="cls-6" points="175 100 175 50 210.35 14.64 175 100"/>
            </g>
          </g>
          <g class="cls-4">
            <g class="cls-38">
              <polygon class="cls-12" points="210.35 14.64 175 50 125 50 210.35 14.64"/>
            </g>
          </g>
          <g class="cls-4">
            <g class="cls-43">
              <polygon class="cls-12" points="210.35 14.64 175 50 210.35 85.36 210.35 14.64"/>
            </g>
          </g>
          <g class="cls-4">
            <g class="cls-47">
              <polygon class="cls-12" points="210.35 14.64 175 50 175 0 210.35 14.64"/>
            </g>
          </g>
          <g class="cls-4">
            <g class="cls-53">
              <polygon class="cls-12" points="210.35 14.64 175 50 225 50 210.35 14.64"/>
            </g>
          </g>
          <g class="cls-4">
            <g class="cls-55">
              <polygon class="cls-12" points="210.35 14.64 175 50 139.65 14.64 210.35 14.64"/>
            </g>
          </g>
          <g class="cls-4">
            <g class="cls-56">
              <polygon class="cls-12" points="210.35 14.64 175 50 175 100 210.35 14.64"/>
            </g>
          </g>
        </g>
      </g>
    </g>
  </g>
  <g id="Diamond_1_RGB_" data-name="Diamond 1 (RGB)">
    <g class="cls-57">
      <g class="cls-57">
        <polygon class="cls-3" points="50 0 14.64 14.64 0 50 14.64 85.36 50 100 85.36 85.36 100 50 85.36 14.64 50 0"/>
        <g class="cls-57">
          <g class="cls-4">
            <g class="cls-58">
              <polygon class="cls-6" points="50 100 50 50 14.64 14.64 50 100"/>
            </g>
          </g>
          <g class="cls-4">
            <g class="cls-59">
              <polygon class="cls-6" points="50 100 50 50 0 50 50 100"/>
            </g>
          </g>
          <g class="cls-4">
            <g class="cls-60">
              <polygon class="cls-6" points="50 100 50 50 85.36 14.64 50 100"/>
            </g>
          </g>
          <g class="cls-4">
            <g class="cls-61">
              <polygon class="cls-6" points="50 100 50 50 85.36 85.36 50 100"/>
            </g>
          </g>
          <g class="cls-4">
            <g class="cls-62">
              <polygon class="cls-6" points="50 100 50 50 100 50 50 100"/>
            </g>
          </g>
          <g class="cls-4">
            <g class="cls-63">
              <polygon class="cls-6" points="50 100 50 50 14.64 85.36 50 100"/>
            </g>
          </g>
          <g class="cls-4">
            <g class="cls-58">
              <polygon class="cls-12" points="14.64 14.64 50 50 50 100 14.64 14.64"/>
            </g>
          </g>
          <g class="cls-4">
            <g class="cls-64">
              <polygon class="cls-12" points="14.64 14.64 50 50 0 50 14.64 14.64"/>
            </g>
          </g>
          <g class="cls-4">
            <g class="cls-65">
              <polygon class="cls-12" points="14.64 14.64 50 50 85.36 14.64 14.64 14.64"/>
            </g>
          </g>
          <g class="cls-4">
            <g class="cls-66">
              <polygon class="cls-12" points="14.64 14.64 50 50 50 0 14.64 14.64"/>
            </g>
          </g>
          <g class="cls-4">
            <g class="cls-67">
              <polygon class="cls-12" points="14.64 14.64 50 50 100 50 14.64 14.64"/>
            </g>
          </g>
          <g class="cls-4">
            <g class="cls-68">
              <polygon class="cls-12" points="14.64 14.64 50 50 14.64 85.36 14.64 14.64"/>
            </g>
          </g>
          <g class="cls-4">
            <g class="cls-59">
              <polygon class="cls-18" points="0 50 50 50 50 100 0 50"/>
            </g>
          </g>
          <g class="cls-4">
            <g class="cls-64">
              <polygon class="cls-18" points="0 50 50 50 14.64 14.64 0 50"/>
            </g>
          </g>
          <g class="cls-4">
            <g class="cls-69">
              <polygon class="cls-18" points="0 50 50 50 85.36 14.64 0 50"/>
            </g>
          </g>
          <g class="cls-4">
            <g class="cls-70">
              <polygon class="cls-18" points="0 50 50 50 50 0 0 50"/>
            </g>
          </g>
          <g class="cls-4">
            <g class="cls-71">
              <polygon class="cls-18" points="0 50 50 50 85.36 85.36 0 50"/>
            </g>
          </g>
          <g class="cls-4">
            <g class="cls-72">
              <polygon class="cls-18" points="0 50 50 50 14.64 85.36 0 50"/>
            </g>
          </g>
          <g class="cls-4">
            <g class="cls-60">
              <polygon class="cls-6" points="85.36 14.64 50 50 50 100 85.36 14.64"/>
            </g>
          </g>
          <g class="cls-4">
            <g class="cls-65">
              <polygon class="cls-6" points="85.36 14.64 50 50 14.64 14.64 85.36 14.64"/>
            </g>
          </g>
          <g class="cls-4">
            <g class="cls-69">
              <polygon class="cls-6" points="85.36 14.64 50 50 0 50 85.36 14.64"/>
            </g>
          </g>
          <g class="cls-4">
            <g class="cls-73">
              <polygon class="cls-6" points="85.36 14.64 50 50 50 0 85.36 14.64"/>
            </g>
          </g>
          <g class="cls-4">
            <g class="cls-74">
              <polygon class="cls-6" points="85.36 14.64 50 50 85.36 85.36 85.36 14.64"/>
            </g>
          </g>
          <g class="cls-4">
            <g class="cls-75">
              <polygon class="cls-6" points="85.36 14.64 50 50 100 50 85.36 14.64"/>
            </g>
          </g>
          <g class="cls-4">
            <g class="cls-66">
              <polygon class="cls-12" points="50 0 50 50 14.64 14.64 50 0"/>
            </g>
          </g>
          <g class="cls-4">
            <g class="cls-70">
              <polygon class="cls-12" points="50 0 50 50 0 50 50 0"/>
            </g>
          </g>
          <g class="cls-4">
            <g class="cls-73">
              <polygon class="cls-12" points="50 0 50 50 85.36 14.64 50 0"/>
            </g>
          </g>
          <g class="cls-4">
            <g class="cls-76">
              <polygon class="cls-12" points="50 0 50 50 85.36 85.36 50 0"/>
            </g>
          </g>
          <g class="cls-4">
            <g class="cls-77">
              <polygon class="cls-12" points="50 0 50 50 100 50 50 0"/>
            </g>
          </g>
          <g class="cls-4">
            <g class="cls-78">
              <polygon class="cls-12" points="50 0 50 50 14.64 85.36 50 0"/>
            </g>
          </g>
          <g class="cls-4">
            <g class="cls-61">
              <polygon class="cls-18" points="85.36 85.36 50 50 50 100 85.36 85.36"/>
            </g>
          </g>
          <g class="cls-4">
            <g class="cls-71">
              <polygon class="cls-18" points="85.36 85.36 50 50 0 50 85.36 85.36"/>
            </g>
          </g>
          <g class="cls-4">
            <g class="cls-74">
              <polygon class="cls-18" points="85.36 85.36 50 50 85.36 14.64 85.36 85.36"/>
            </g>
          </g>
          <g class="cls-4">
            <g class="cls-76">
              <polygon class="cls-18" points="85.36 85.36 50 50 50 0 85.36 85.36"/>
            </g>
          </g>
          <g class="cls-4">
            <g class="cls-79">
              <polygon class="cls-18" points="85.36 85.36 50 50 100 50 85.36 85.36"/>
            </g>
          </g>
          <g class="cls-4">
            <g class="cls-80">
              <polygon class="cls-18" points="85.36 85.36 50 50 14.64 85.36 85.36 85.36"/>
            </g>
          </g>
          <g class="cls-4">
            <g class="cls-62">
              <polygon class="cls-6" points="100 50 50 50 50 100 100 50"/>
            </g>
          </g>
          <g class="cls-4">
            <g class="cls-67">
              <polygon class="cls-6" points="100 50 50 50 14.64 14.64 100 50"/>
            </g>
          </g>
          <g class="cls-4">
            <g class="cls-75">
              <polygon class="cls-6" points="100 50 50 50 85.36 14.64 100 50"/>
            </g>
          </g>
          <g class="cls-4">
            <g class="cls-77">
              <polygon class="cls-6" points="100 50 50 50 50 0 100 50"/>
            </g>
          </g>
          <g class="cls-4">
            <g class="cls-79">
              <polygon class="cls-6" points="100 50 50 50 85.36 85.36 100 50"/>
            </g>
          </g>
          <g class="cls-4">
            <g class="cls-81">
              <polygon class="cls-6" points="100 50 50 50 14.64 85.36 100 50"/>
            </g>
          </g>
          <g class="cls-4">
            <g class="cls-63">
              <polygon class="cls-12" points="14.64 85.36 50 50 50 100 14.64 85.36"/>
            </g>
          </g>
          <g class="cls-4">
            <g class="cls-68">
              <polygon class="cls-12" points="14.64 85.36 50 50 14.64 14.64 14.64 85.36"/>
            </g>
          </g>
          <g class="cls-4">
            <g class="cls-72">
              <polygon class="cls-12" points="14.64 85.36 50 50 0 50 14.64 85.36"/>
            </g>
          </g>
          <g class="cls-4">
            <g class="cls-78">
              <polygon class="cls-12" points="14.64 85.36 50 50 50 0 14.64 85.36"/>
            </g>
          </g>
          <g class="cls-4">
            <g class="cls-80">
              <polygon class="cls-12" points="14.64 85.36 50 50 85.36 85.36 14.64 85.36"/>
            </g>
          </g>
          <g class="cls-4">
            <g class="cls-81">
              <polygon class="cls-12" points="14.64 85.36 50 50 100 50 14.64 85.36"/>
            </g>
          </g>
        </g>
      </g>
    </g>
  </g>
  <g id="Text">
    <g class="cls-82">
      <g class="cls-83">
        <path d="M280.1,88.54A427,427,0,0,0,281.55,14c-0.28-4.18,3.46-7.88,7.77-9.35s9.06-1.22,13.65-.95l12.53,0.74c1.79,0.11,3.74.27,5,1.39a6.63,6.63,0,0,1,1.83,3.62c6.7,26.47-1.78,54.16.56,81.24a8.33,8.33,0,0,1-.41,4.5A3.38,3.38,0,0,1,318.45,97c-1.81-.8-1.74-3.13-1.45-4.95a103.86,103.86,0,0,0,1-25.56,3.32,3.32,0,0,0-.83-2.31,4.09,4.09,0,0,0-2.3-.76,115.26,115.26,0,0,0-28.59.26,192.81,192.81,0,0,1-2.07,33.56c-3.84-.41-4.47-5.2-4.1-8.7M316.77,58a2.92,2.92,0,0,0,1.15-.18,2.38,2.38,0,0,0,1.07-2,135.06,135.06,0,0,0-1-42.29,4.34,4.34,0,0,0-1.4-2.93,5.4,5.4,0,0,0-2.76-.73l-13.12-1c-2.87-.23-5.84-0.44-8.56.42s-5.13,3.12-5,5.74c0.5,14.58,1,29.23-.76,43.73L302,58.38,316.77,58"/>
        <path d="M256.25,94.8c4.66-28.7-.67-58,0.83-86.94A5.72,5.72,0,0,1,258,4.47a2.52,2.52,0,0,1,3.37-.58,3,3,0,0,1,.71,2.33q0.18,42.31.35,84.62c0,1.91-.09,4.06-1.63,5.37s-4.86.48-4.55-1.42"/>
        <path d="M200.79,92.56c1-.9,1.06-2.34,1-3.62A590,590,0,0,1,205,9.71c0.2-1.87-2.64-2.66-4.76-2.64s-4.93-.27-5.33-2.12c-0.28-1.3,1.05-2.51,2.5-2.82a10.77,10.77,0,0,1,4.41.35,85.68,85.68,0,0,0,27.66,1.29c3.87-.45,7.51,2.17,9.1,5.32s1.58,6.73,1.55,10.18q-0.33,36-.66,71.94a5.73,5.73,0,0,1-.69,3.27c-1,1.49-3.17,2-5.11,2.27a116.28,116.28,0,0,1-42.21-1.36c0.12-1.59,2.42-2.2,4.22-2.11s3.87,0.39,5.15-.72M228.65,9.07a103.64,103.64,0,0,1-18.35-1,431.51,431.51,0,0,0-3.47,81.65c0.08,1.47.31,3.18,1.71,4a5.86,5.86,0,0,0,3,.47L222.18,94a23.47,23.47,0,0,0,8-1c2.49-.95,4.64-3,4.64-5.42l-0.17-69.34a13.29,13.29,0,0,0-.9-5.84,5.7,5.7,0,0,0-5.09-3.3"/>
        <path d="M174.89,97.85a13.73,13.73,0,0,1-6,.8l-11.58-.18c-6.41-.1-14-0.87-17.14-6.46-1.46-2.61-1.56-5.75-1.61-8.74Q138,48.1,140.83,13c0.29-3.6.82-7.63,3.66-9.86,2.54-2,6.09-1.88,9.32-1.67l16.85,1.1c2.6,0.17,5.55.52,7.08,2.62A9,9,0,0,1,179,10c1.72,25.18,3.44,50.46,1.57,75.64-0.35,4.71-1.39,10.25-5.68,12.22m-22.51-4.34a70.42,70.42,0,0,0,17.16.18c1.65-.18,3.42-0.49,4.56-1.7s1.32-2.87,1.49-4.45A324.37,324.37,0,0,0,174.81,13a9.6,9.6,0,0,0-1.36-4.49c-1.74-2.42-5.17-2.71-8.16-2.77l-13-.27c-2.46-.05-5.71.52-6,3a412.35,412.35,0,0,0-2.83,73.82c0.17,3.35.58,7.11,3.19,9.24a11.34,11.34,0,0,0,5.8,2"/>
        <path d="M117.77,8L103.33,6.61c-2.64-.25-5.49-0.46-7.73,1-3.11,2-3.74,6.16-4,9.83a392.64,392.64,0,0,0,.78,68.05,6.4,6.4,0,0,0,1.32,4,6.22,6.22,0,0,0,3.76,1.43,82.31,82.31,0,0,0,23.27-.19,7.92,7.92,0,0,1,4.22.1c1.32,0.55,2.26,2.24,1.49,3.45-0.62,1-1.93,1.14-3.08,1.2q-12.06.68-24.15,0.31c-4.33-.13-9.5-0.9-11.31-4.84a12,12,0,0,1-.76-4.8q-0.67-30.8-1.33-61.61c-0.1-4.65-.17-9.46,1.58-13.77s5.84-8,10.5-7.84l18.2,0.74a6.19,6.19,0,0,1,3.55.88c1,0.75,1.35,2.43.37,3.2a3.1,3.1,0,0,1-2.24.36"/>
        <path d="M69.56,6.12l1.58,36.73c0.27,6.39.55,12.79,0.48,19.19a178.79,178.79,0,0,1-2.13,25.63c-0.5,3.22-1.38,6.85-4.23,8.43a10.85,10.85,0,0,1-4.88,1,200.61,200.61,0,0,1-22.84-.39c-4.6-.34-10-1.41-11.85-5.64A13.2,13.2,0,0,1,25,85.5Q25.84,46.8,26.65,8.11c0-1.53.14-3.22,1.24-4.28s3.49-.58,3.46,1Q30.57,43.89,29.8,83c-0.05,2.56,0,5.42,1.81,7.24s4.55,1.93,7.05,2L58,92.42a8.15,8.15,0,0,0,4.66-.88c1.71-1.14,2.3-3.34,2.69-5.36,5-25.48.55-51.73,0.14-77.69A5.5,5.5,0,0,1,66.24,5C67,4,68.71,3.8,69.3,4.86a2.79,2.79,0,0,1,.25,1.26"/>
      </g>
    </g>
  </g>
</svg>
