<svg id="Layer_1" data-name="Layer 1" xmlns="http://www.w3.org/2000/svg" xmlns:xlink="http://www.w3.org/1999/xlink" width="308.29" height="100" viewBox="0 0 308.29 100">
  <defs>
    <style>
      .cls-1 {
        fill: none;
      }

      .cls-2 {
        clip-path: url(#clip-path);
      }

      .cls-3 {
        clip-path: url(#clip-path-2);
      }
    </style>
    <clipPath id="clip-path" transform="translate(0 0)">
      <rect class="cls-1" width="308.29" height="100"/>
    </clipPath>
    <clipPath id="clip-path-2" transform="translate(0 0)">
      <rect class="cls-1" width="308.29" height="100"/>
    </clipPath>
  </defs>
  <title>logo</title>
  <g id="Ucodia_Logo" data-name="Ucodia Logo">
    <g class="cls-2">
      <g class="cls-3">
        <path d="M262.16,89.61a438.8,438.8,0,0,0,1.48-76.55c-0.29-4.29,3.56-8.1,8-9.61s9.31-1.25,14-1l12.87,0.76c1.84,0.11,3.84.28,5.19,1.42a6.81,6.81,0,0,1,1.88,3.72c6.89,27.2-1.83,55.66.57,83.49a8.56,8.56,0,0,1-.42,4.63,3.47,3.47,0,0,1-4.18,1.8c-1.86-.82-1.79-3.22-1.49-5.08a106.73,106.73,0,0,0,1-26.27,3.41,3.41,0,0,0-.86-2.37,4.2,4.2,0,0,0-2.36-.78,118.44,118.44,0,0,0-29.38.27,198.14,198.14,0,0,1-2.13,34.49c-3.94-.42-4.6-5.34-4.21-8.94m37.68-31.36a3,3,0,0,0,1.18-.19,2.45,2.45,0,0,0,1.1-2.08,138.79,138.79,0,0,0-1-43.46,4.46,4.46,0,0,0-1.44-3,5.55,5.55,0,0,0-2.83-.75L283.39,7.71c-3-.23-6-0.45-8.8.43s-5.27,3.21-5.18,5.9c0.52,15,1,30-.78,44.94l16.07-.38,15.15-.36" transform="translate(0 0)"/>
        <path d="M237.65,96c4.78-29.5-.69-59.56.85-89.34a5.88,5.88,0,0,1,.95-3.48c0.78-1,2.5-1.44,3.46-.59a3,3,0,0,1,.73,2.4q0.18,43.48.36,87c0,2-.09,4.17-1.67,5.51s-5,.49-4.68-1.46" transform="translate(0 0)"/>
        <path d="M180.65,93.74c1.06-.92,1.09-2.4,1.05-3.72a606.25,606.25,0,0,1,3.23-81.42c0.21-1.93-2.71-2.73-4.9-2.71S175,5.6,174.56,3.7c-0.29-1.33,1.08-2.58,2.57-2.9a11.07,11.07,0,0,1,4.53.36A88,88,0,0,0,210.1,2.5c4-.46,7.72,2.23,9.35,5.47s1.63,6.92,1.6,10.46q-0.34,37-.68,73.93a5.89,5.89,0,0,1-.71,3.36c-1,1.54-3.26,2-5.25,2.33A119.49,119.49,0,0,1,171,96.65c0.13-1.63,2.49-2.26,4.33-2.17s4,0.4,5.29-.74m28.63-85.8a106.5,106.5,0,0,1-18.86-1,443.44,443.44,0,0,0-3.56,83.91c0.08,1.51.31,3.27,1.76,4.08a6,6,0,0,0,3,.48l11-.15a24.12,24.12,0,0,0,8.22-1.07c2.56-1,4.77-3.1,4.76-5.57l-0.17-71.26a13.66,13.66,0,0,0-.93-6,5.85,5.85,0,0,0-5.23-3.39" transform="translate(0 0)"/>
        <path d="M154,99.17a14.11,14.11,0,0,1-6.14.82L136,99.81c-6.59-.1-14.39-0.89-17.61-6.64-1.5-2.69-1.61-5.9-1.65-9Q116.17,48,119,12c0.29-3.7.84-7.84,3.76-10.13,2.61-2.05,6.26-1.93,9.58-1.72l17.32,1.13c2.67,0.18,5.7.54,7.28,2.7a9.27,9.27,0,0,1,1.29,4.94c1.77,25.88,3.53,51.86,1.61,77.73-0.36,4.84-1.43,10.54-5.84,12.56M130.9,94.71a72.37,72.37,0,0,0,17.64.19c1.69-.19,3.52-0.51,4.68-1.75s1.36-2.94,1.53-4.57A333.33,333.33,0,0,0,154,12a9.87,9.87,0,0,0-1.4-4.61c-1.79-2.49-5.32-2.78-8.38-2.84l-13.4-.28c-2.53-.05-5.87.54-6.19,3.05a423.74,423.74,0,0,0-2.91,75.86c0.18,3.45.6,7.31,3.27,9.49a11.66,11.66,0,0,0,6,2" transform="translate(0 0)"/>
        <path d="M95.33,6.83L80.5,5.41c-2.71-.26-5.65-0.47-7.94,1-3.19,2-3.84,6.33-4.13,10.1a403.5,403.5,0,0,0,.8,69.93,6.58,6.58,0,0,0,1.36,4.06A6.39,6.39,0,0,0,74.45,92a84.59,84.59,0,0,0,23.92-.2,8.14,8.14,0,0,1,4.34.1c1.35,0.57,2.32,2.31,1.53,3.54-0.63,1-2,1.17-3.16,1.23q-12.39.7-24.82,0.32c-4.45-.14-9.77-0.93-11.62-5A12.34,12.34,0,0,1,63.85,87q-0.68-31.66-1.37-63.31C62.38,19,62.3,14,64.11,9.58s6-8.25,10.79-8.06L93.6,2.28a6.36,6.36,0,0,1,3.65.9c1,0.77,1.39,2.5.38,3.29a3.19,3.19,0,0,1-2.3.37" transform="translate(0 0)"/>
        <path d="M45.79,4.9l1.62,37.75c0.28,6.57.56,13.15,0.49,19.72a183.73,183.73,0,0,1-2.18,26.34c-0.52,3.31-1.42,7-4.35,8.66a11.15,11.15,0,0,1-5,1A206.16,206.16,0,0,1,12.89,98C8.17,97.64,2.6,96.54.72,92.19A13.56,13.56,0,0,1,0,86.48Q0.86,46.72,1.7,7c0-1.57.14-3.31,1.27-4.4s3.58-.59,3.55,1Q5.73,43.72,4.93,83.9c-0.05,2.63,0,5.57,1.86,7.44s4.67,2,7.25,2l19.89,0.23a8.37,8.37,0,0,0,4.79-.91c1.76-1.17,2.36-3.43,2.77-5.51C46.6,61,42,34,41.62,7.34a5.65,5.65,0,0,1,.76-3.58c0.76-1,2.54-1.23,3.15-.14a2.87,2.87,0,0,1,.26,1.29" transform="translate(0 0)"/>
      </g>
    </g>
  </g>
</svg>
