<svg clip-rule="evenodd" fill-rule="evenodd" stroke-linejoin="round" stroke-miterlimit="2" viewBox="0 0 100 100" xmlns="http://www.w3.org/2000/svg"><path d="m0 50 14.645-35.355 35.355-14.645 35.355 14.645 14.645 35.355-14.645 35.355-35.355 14.645-35.355-14.645z" fill="#fff"/><g fill-opacity=".2" fill-rule="nonzero"><path d="m50 50h-50l85.355 35.355zm0 0h-50l50-50z" fill="#00aeef"/><path d="m50 50h-50l14.645 35.355zm50 0h-100zm-50 0h-50l14.645-35.355z" fill="#00aeef"/><path d="m50 50h-50l50 50zm0 0h-50l85.355-35.355z" fill="#00aeef"/><path d="m50 50 35.355 35.355-85.355-35.355z" fill="#fff200"/><path d="m50 50 35.355 35.355-35.355-85.355z" fill="#fff200"/><path d="m50 50 35.355 35.355h-70.71z" fill="#fff200"/><path d="m50 50 35.355 35.355 14.645-35.355zm-35.355-35.355 70.71 70.71zm35.355 35.355 35.355 35.355-35.355 14.645z" fill="#fff200"/><path d="m50 50 35.355 35.355v-70.71z" fill="#fff200"/><path d="m50 50v-50l-50 50zm0 0v-50l35.355 85.355z" fill="#ec008c"/><path d="m50 50v-50l-35.355 85.355zm0 0v-50l50 50z" fill="#ec008c"/><path d="m50 50v-50l-35.355 14.645zm0 50v-100zm0-50v-50l35.355 14.645z" fill="#ec008c"/><path d="m50 50-35.355 35.355-14.645-35.355zm0 0-35.355 35.355h70.71z" fill="#00aeef"/><path d="m50 50-35.355 35.355 35.355-85.355z" fill="#00aeef"/><path d="m50 50-35.355 35.355 85.355-35.355z" fill="#00aeef"/><path d="m50 50-35.355 35.355v-70.71zm0 0-35.355 35.355 35.355 14.645zm35.355-35.355-70.71 70.71z" fill="#00aeef"/><path d="m0 50h100zm50 0h50l-14.645 35.355zm0 0h50l-50-50z" fill="#fff200"/><path d="m50 50h50l-85.355 35.355zm0 0h50l-85.355-35.355z" fill="#fff200"/><path d="m50 50h50l-50 50zm0 0h50l-14.645-35.355z" fill="#fff200"/><path d="m50 50-35.355-35.355-14.645 35.355zm35.355 35.355-70.71-70.71z" fill="#ec008c"/><path d="m50 50-35.355-35.355 35.355-14.645z" fill="#ec008c"/><path d="m50 50-35.355-35.355v70.71z" fill="#ec008c"/><path d="m50 50-35.355-35.355 85.355 35.355zm0 0-35.355-35.355 35.355 85.355z" fill="#ec008c"/><path d="m50 50-35.355-35.355h70.71z" fill="#ec008c"/><path d="m50 50v50l-50-50zm0 0v50l35.355-14.645zm0-50v100z" fill="#00aeef"/><path d="m50 50v50l-35.355-14.645zm0 0v50l50-50z" fill="#00aeef"/><path d="m50 50v50l-35.355-85.355zm0 0v50l35.355-85.355z" fill="#00aeef"/><path d="m50 50 35.355-35.355-85.355 35.355z" fill="#fff200"/><path d="m50 50 35.355-35.355v70.71z" fill="#fff200"/><path d="m50 50 35.355-35.355-35.355-14.645z" fill="#fff200"/><path d="m14.645 85.355 70.71-70.71zm35.355-35.355 35.355-35.355 14.645 35.355z" fill="#fff200"/><path d="m50 50 35.355-35.355h-70.71z" fill="#fff200"/><path d="m50 50 35.355-35.355-35.355 85.355z" fill="#fff200"/></g></svg>