<svg xmlns="http://www.w3.org/2000/svg" xml:space="preserve" style="fill-rule:evenodd;clip-rule:evenodd;stroke-linejoin:round;stroke-miterlimit:2" viewBox="0 0 617 200"><path d="M524.31 179.22a876.995 876.995 0 0 0 3-153.11c-.58-8.59 7.12-16.19 16-19.22 8.88-3.03 18.61-2.51 28-1.94L597 6.47c3.68.22 7.68.56 10.37 2.85 2.23 1.9 3.09 4.73 3.77 7.44 13.78 54.4-3.66 111.32 1.15 167 .27 3.12.58 6.4-.84 9.25-1.42 2.85-5.27 5-8.37 3.6-3.72-1.65-3.58-6.44-3-10.17a214.094 214.094 0 0 0 2-52.55c-.15-1.69-.39-3.54-1.72-4.74-1.33-1.2-3-1.36-4.72-1.55a237.17 237.17 0 0 0-58.75.53 395.302 395.302 0 0 1-4.26 69c-7.89-.83-9.19-10.68-8.42-17.87m75.37-62.72a6.182 6.182 0 0 0 2.36-.38c1.57-.73 2-2.56 2.2-4.16a277.586 277.586 0 0 0-2-86.91c-.41-2.2-1-4.61-2.89-6-1.56-1.13-3.68-1.33-5.67-1.49l-27-2.12c-5.9-.47-12-.91-17.6.87-5.6 1.78-10.55 6.41-10.37 11.8 1 30 2.06 60.07-1.55 89.88l32.14-.76 30.29-.72m-124.2 75.52c9.57-59-1.38-119.12 1.7-178.69.13-2.42.33-5 1.9-7 1.57-2 5-2.88 6.93-1.19 1.35 1.18 1.44 3.09 1.45 4.79L488 184c0 3.93-.18 8.35-3.34 11-3.16 2.65-10 1-9.36-2.91m-114-4.61c2.12-1.85 2.18-4.81 2.11-7.45a1210.476 1210.476 0 0 1 6.46-162.85c.41-3.85-5.43-5.46-9.8-5.42-4.37.04-10.07-.55-10.94-4.35-.57-2.67 2.16-5.17 5.15-5.79 2.99-.62 6.08.09 9.06.72A176.212 176.212 0 0 0 420.2 5c7.94-.92 15.44 4.46 18.7 10.94 3.26 6.48 3.26 13.84 3.2 20.93-.453 49.293-.903 98.58-1.35 147.86 0 2.3-.09 4.73-1.43 6.71-2.09 3.07-6.52 4.05-10.51 4.66a239.197 239.197 0 0 1-86.76-2.8c.25-3.27 5-4.52 8.67-4.33 3.67.19 7.95.8 10.58-1.49m57.25-171.6a213.092 213.092 0 0 1-37.71-2 886.167 886.167 0 0 0-7.13 167.81c.16 3 .63 6.54 3.52 8.16 1.76 1 4 1 6.07 1l21.95-.31c5.58-.08 11.31-.18 16.44-2.13 5.13-1.95 9.54-6.2 9.52-11.14l-.34-142.52c0-4.07-.05-8.27-1.86-12-1.81-3.73-5.86-7-10.46-6.79M308.06 198.34c-3.79 1.73-8.11 1.7-12.28 1.64l-23.78-.37c-13.18-.2-28.79-1.78-35.22-13.28-3-5.37-3.21-11.81-3.31-18-.747-48.18.79-96.327 4.61-144.44.58-7.41 1.68-15.68 7.52-20.27 5.21-4.07 12.51-3.83 19.14-3.39l34.64 2.26c5.34.35 11.4 1.07 14.56 5.4 2 2.78 2.34 6.43 2.58 9.87 3.53 51.76 7.06 103.72 3.22 155.45-.72 9.69-2.85 21.08-11.68 25.13m-46.25-8.92a144.03 144.03 0 0 0 35.27.38c3.39-.37 7-1 9.37-3.49 2.37-2.49 2.72-5.89 3.07-9.15A666.7 666.7 0 0 0 307.91 24c-.41-3.22-.9-6.59-2.79-9.23-3.59-5-10.64-5.56-16.77-5.68l-26.8-.56c-5.07-.1-11.74 1.08-12.39 6.1a848.298 848.298 0 0 0-5.82 151.72c.36 6.89 1.2 14.62 6.55 19 3.3 2.69 7.7 3.53 11.92 4.09M190.66 13.67 161 10.83c-5.42-.52-11.29-.94-15.89 2-6.39 4.05-7.69 12.66-8.26 20.2a806.543 806.543 0 0 0 1.61 139.86c.28 2.9.69 6 2.72 8.13 2.03 2.13 4.94 2.56 7.72 2.94a169.193 169.193 0 0 0 47.83-.4c2.9-.43 6-.93 8.68.2 2.68 1.13 4.64 4.61 3.06 7.08-1.26 2-4 2.34-6.32 2.47-16.53.92-33.092 1.13-49.64.63-8.89-.27-19.53-1.86-23.24-9.95-1.41-3.05-1.5-6.51-1.57-9.87-.92-42.2-1.833-84.407-2.74-126.62-.2-9.57-.35-19.45 3.26-28.31S140.23 2.65 149.79 3l37.41 1.56c2.55.1 5.27.26 7.3 1.8 2.03 1.54 2.77 5 .77 6.58-1.26 1-3 .88-4.61.73M91.58 9.81l3.24 75.5c.56 13.14 1.13 26.29 1 39.44a367.51 367.51 0 0 1-4.37 52.68c-1 6.62-2.83 14.07-8.69 17.31-3 1.67-6.59 1.89-10 2a413.01 413.01 0 0 1-46.94-.8c-9.45-.7-20.58-2.9-24.35-11.59C-.11 180.83 0 176.82 0 173 1.153 119.953 2.287 66.92 3.4 13.9c.07-3.13.28-6.62 2.54-8.79 2.26-2.17 7.17-1.18 7.11 1.95-1.06 53.58-2.123 107.163-3.19 160.75-.11 5.26 0 11.13 3.71 14.88s9.35 4 14.5 4l39.77.47c3.3 0 6.83 0 9.58-1.81 3.52-2.34 4.72-6.87 5.53-11C93.2 122 84.07 68 83.24 14.69c0-2.5 0-5.19 1.52-7.17 1.52-1.98 5.08-2.47 6.3-.29.369.809.547 1.692.52 2.58" style="fill-rule:nonzero"/></svg>