<?xml version="1.0" encoding="UTF-8" standalone="no"?>
<!DOCTYPE svg PUBLIC "-//W3C//DTD SVG 1.1//EN" "http://www.w3.org/Graphics/SVG/1.1/DTD/svg11.dtd">
<svg width="100%" height="100%" viewBox="0 0 617 200" version="1.1" xmlns="http://www.w3.org/2000/svg" xmlns:xlink="http://www.w3.org/1999/xlink" xml:space="preserve" xmlns:serif="http://www.serif.com/" style="fill-rule:evenodd;clip-rule:evenodd;stroke-linejoin:round;stroke-miterlimit:2;">
    <path d="M524.31,179.22C529.773,128.368 530.776,77.136 527.31,26.11C526.73,17.52 534.43,9.92 543.31,6.89C552.19,3.86 561.92,4.38 571.31,4.95L597,6.47C600.68,6.69 604.68,7.03 607.37,9.32C609.6,11.22 610.46,14.05 611.14,16.76C624.92,71.16 607.48,128.08 612.29,183.76C612.56,186.88 612.87,190.16 611.45,193.01C610.03,195.86 606.18,198.01 603.08,196.61C599.36,194.96 599.5,190.17 600.08,186.44C602.904,169.072 603.575,151.422 602.08,133.89C601.93,132.2 601.69,130.35 600.36,129.15C599.03,127.95 597.36,127.79 595.64,127.6C576.11,125.341 556.376,125.519 536.89,128.13C537.488,151.21 536.062,174.299 532.63,197.13C524.74,196.3 523.44,186.45 524.21,179.26M599.58,116.54C600.384,116.568 601.186,116.439 601.94,116.16C603.51,115.43 603.94,113.6 604.14,112C608.042,83.105 607.367,53.775 602.14,25.09C601.73,22.89 601.14,20.48 599.25,19.09C597.69,17.96 595.57,17.76 593.58,17.6L566.58,15.48C560.68,15.01 554.58,14.57 548.98,16.35C543.38,18.13 538.43,22.76 538.61,28.15C539.61,58.15 540.67,88.22 537.06,118.03L569.2,117.27L599.49,116.55M475.29,192.07C484.86,133.07 473.91,72.95 476.99,13.38C477.12,10.96 477.32,8.38 478.89,6.38C480.46,4.38 483.89,3.5 485.82,5.19C487.17,6.37 487.26,8.28 487.27,9.98L488,184C488,187.93 487.82,192.35 484.66,195C481.5,197.65 474.66,196 475.3,192.09M361.3,187.48C363.42,185.63 363.48,182.67 363.41,180.03C361.902,125.663 364.061,71.257 369.87,17.18C370.28,13.33 364.44,11.72 360.07,11.76C355.7,11.8 350,11.21 349.13,7.41C348.56,4.74 351.29,2.24 354.28,1.62C357.27,1 360.36,1.71 363.34,2.34C382.024,6.302 401.228,7.201 420.2,5C428.14,4.08 435.64,9.46 438.9,15.94C442.16,22.42 442.16,29.78 442.1,36.87C441.647,86.163 441.197,135.45 440.75,184.73C440.75,187.03 440.66,189.46 439.32,191.44C437.23,194.51 432.8,195.49 428.81,196.1C399.962,200.466 370.557,199.517 342.05,193.3C342.3,190.03 347.05,188.78 350.72,188.97C354.39,189.16 358.67,189.77 361.3,187.48M418.55,15.88C405.946,16.331 393.326,15.661 380.84,13.88C373.156,69.465 370.768,125.654 373.71,181.69C373.87,184.69 374.34,188.23 377.23,189.85C378.99,190.85 381.23,190.85 383.3,190.85L405.25,190.54C410.83,190.46 416.56,190.36 421.69,188.41C426.82,186.46 431.23,182.21 431.21,177.27L430.87,34.75C430.87,30.68 430.82,26.48 429.01,22.75C427.2,19.02 423.15,15.75 418.55,15.96M308.06,198.34C304.27,200.07 299.95,200.04 295.78,199.98L272,199.61C258.82,199.41 243.21,197.83 236.78,186.33C233.78,180.96 233.57,174.52 233.47,168.33C232.723,120.15 234.26,72.003 238.08,23.89C238.66,16.48 239.76,8.21 245.6,3.62C250.81,-0.45 258.11,-0.21 264.74,0.23L299.38,2.49C304.72,2.84 310.78,3.56 313.94,7.89C315.94,10.67 316.28,14.32 316.52,17.76C320.05,69.52 323.58,121.48 319.74,173.21C319.02,182.9 316.89,194.29 308.06,198.34M261.81,189.42C273.507,190.991 285.352,191.119 297.08,189.8C300.47,189.43 304.08,188.8 306.45,186.31C308.82,183.82 309.17,180.42 309.52,177.16C314.869,126.214 314.329,74.822 307.91,24C307.5,20.78 307.01,17.41 305.12,14.77C301.53,9.77 294.48,9.21 288.35,9.09L261.55,8.53C256.48,8.43 249.81,9.61 249.16,14.63C242.689,64.928 240.741,115.704 243.34,166.35C243.7,173.24 244.54,180.97 249.89,185.35C253.19,188.04 257.59,188.88 261.81,189.44M190.66,13.67L161,10.83C155.58,10.31 149.71,9.89 145.11,12.83C138.72,16.88 137.42,25.49 136.85,33.03C133.336,79.609 133.874,126.405 138.46,172.89C138.74,175.79 139.15,178.89 141.18,181.02C143.21,183.15 146.12,183.58 148.9,183.96C164.782,186.092 180.886,185.958 196.73,183.56C199.63,183.13 202.73,182.63 205.41,183.76C208.09,184.89 210.05,188.37 208.47,190.84C207.21,192.84 204.47,193.18 202.15,193.31C185.62,194.23 169.058,194.44 152.51,193.94C143.62,193.67 132.98,192.08 129.27,183.99C127.86,180.94 127.77,177.48 127.7,174.12C126.78,131.92 125.867,89.713 124.96,47.5C124.76,37.93 124.61,28.05 128.22,19.19C131.83,10.33 140.23,2.65 149.79,3L187.2,4.56C189.75,4.66 192.47,4.82 194.5,6.36C196.53,7.9 197.27,11.36 195.27,12.94C194.01,13.94 192.27,13.82 190.66,13.67M91.58,9.81L94.82,85.31C95.38,98.45 95.95,111.6 95.82,124.75C95.63,142.392 94.169,159.998 91.45,177.43C90.45,184.05 88.62,191.5 82.76,194.74C79.76,196.41 76.17,196.63 72.76,196.74C57.111,197.364 41.439,197.096 25.82,195.94C16.37,195.24 5.24,193.04 1.47,184.35C-0.11,180.83 0,176.82 0,173C1.153,119.953 2.287,66.92 3.4,13.9C3.47,10.77 3.68,7.28 5.94,5.11C8.2,2.94 13.11,3.93 13.05,7.06C11.99,60.64 10.927,114.223 9.86,167.81C9.75,173.07 9.86,178.94 13.57,182.69C17.28,186.44 22.92,186.69 28.07,186.69L67.84,187.16C71.14,187.16 74.67,187.16 77.42,185.35C80.94,183.01 82.14,178.48 82.95,174.35C93.2,122 84.07,68 83.24,14.69C83.24,12.19 83.24,9.5 84.76,7.52C86.28,5.54 89.84,5.05 91.06,7.23C91.429,8.039 91.607,8.922 91.58,9.81" style="fill-rule:nonzero;"/>
</svg>
