<svg xmlns="http://www.w3.org/2000/svg" width="310" height="100" fill-rule="evenodd" stroke-linejoin="round" stroke-miterlimit="2" clip-rule="evenodd"><path fill="#121212" fill-rule="nonzero" d="M263.015 89.608a438.5 438.5 0 0 0 1.5-76.554c-.29-4.295 3.56-8.095 8-9.61s9.305-1.255 14-.97l12.845.76c1.84.11 3.84.28 5.185 1.425 1.115.95 1.545 2.365 1.885 3.72 6.89 27.2-1.83 55.66.575 83.499.135 1.56.29 3.2-.42 4.625s-2.635 2.5-4.185 1.8c-1.86-.825-1.79-3.22-1.5-5.085a107 107 0 0 0 1-26.275c-.075-.845-.195-1.77-.86-2.37s-1.5-.68-2.36-.775a118.6 118.6 0 0 0-29.375.265 197.7 197.7 0 0 1-2.13 34.5c-3.945-.415-4.595-5.34-4.21-8.935m37.685-31.36a3.1 3.1 0 0 0 1.18-.19c.785-.365 1-1.28 1.1-2.08a138.8 138.8 0 0 0-1-43.454c-.205-1.1-.5-2.305-1.445-3-.78-.565-1.84-.665-2.835-.745l-13.5-1.06c-2.95-.235-6-.455-8.8.435s-5.275 3.205-5.185 5.9c.5 15 1.03 30.034-.775 44.94l16.07-.38 15.145-.36m-62.1 37.759c4.785-29.5-.69-59.56.85-89.344.065-1.21.165-2.5.95-3.5s2.5-1.44 3.465-.595c.675.59.72 1.545.725 2.395l.365 87.009c0 1.965-.09 4.175-1.67 5.5s-5 .5-4.68-1.455m-57-2.305c1.06-.925 1.09-2.405 1.056-3.725a605 605 0 0 1 3.23-81.424c.205-1.925-2.715-2.73-4.9-2.71s-5.035-.275-5.47-2.175c-.285-1.335 1.08-2.585 2.575-2.895s3.04.045 4.53.36a88.1 88.1 0 0 0 28.43 1.33c3.97-.46 7.72 2.23 9.35 5.47s1.63 6.92 1.6 10.465q-.34 36.97-.676 73.929c0 1.15-.045 2.365-.715 3.355-1.045 1.535-3.26 2.025-5.254 2.33a119.6 119.6 0 0 1-43.38-1.4c.125-1.635 2.5-2.26 4.335-2.165s3.975.4 5.29-.745m28.625-85.8a106.6 106.6 0 0 1-18.855-1 443 443 0 0 0-3.565 83.905c.08 1.5.315 3.27 1.76 4.08.88.5 2 .5 3.035.5l10.975-.155c2.79-.04 5.655-.09 8.22-1.065s4.77-3.1 4.76-5.57l-.17-71.26c0-2.034-.025-4.134-.93-6-.905-1.864-2.93-3.5-5.23-3.394M154.89 99.168c-1.895.865-4.055.85-6.14.82l-11.89-.185c-6.59-.1-14.395-.89-17.61-6.64-1.5-2.685-1.605-5.905-1.655-9a763 763 0 0 1 2.305-72.22c.29-3.704.84-7.84 3.76-10.134 2.605-2.035 6.255-1.915 9.57-1.695l17.32 1.13c2.67.175 5.7.535 7.28 2.7 1 1.39 1.17 3.215 1.29 4.935 1.765 25.88 3.53 51.86 1.61 77.724-.36 4.845-1.425 10.54-5.84 12.565m-23.125-4.46a72 72 0 0 0 17.635.19c1.695-.185 3.5-.5 4.685-1.745s1.36-2.945 1.535-4.575a333.4 333.4 0 0 0-.805-76.58c-.205-1.61-.45-3.294-1.395-4.614-1.795-2.5-5.32-2.78-8.385-2.84l-13.4-.28c-2.535-.05-5.87.54-6.195 3.05a424 424 0 0 0-2.91 75.86c.18 3.444.6 7.309 3.275 9.499 1.65 1.345 3.85 1.765 5.96 2.045M96.192 6.834l-14.83-1.42c-2.71-.26-5.645-.47-7.945 1-3.195 2.025-3.845 6.33-4.13 10.1a403.3 403.3 0 0 0 .805 69.929c.14 1.45.345 3 1.36 4.065s2.47 1.28 3.86 1.47a84.6 84.6 0 0 0 23.915-.2c1.45-.215 3-.465 4.34.1s2.32 2.305 1.53 3.54c-.63 1-2 1.17-3.16 1.235-8.265.46-16.546.565-24.82.315-4.445-.135-9.765-.93-11.62-4.975-.705-1.525-.75-3.255-.785-4.935q-.69-31.65-1.37-63.31c-.1-4.784-.175-9.724 1.63-14.154s6.005-8.27 10.785-8.095l18.705.78c1.275.05 2.635.13 3.65.9s1.385 2.5.385 3.29c-.63.5-1.5.44-2.305.365m-49.54-1.93 1.62 37.75c.28 6.57.565 13.144.5 19.72a184 184 0 0 1-2.185 26.339c-.5 3.31-1.415 7.035-4.345 8.655-1.5.835-3.295.945-5 1a207 207 0 0 1-23.47-.4c-4.725-.35-10.29-1.45-12.174-5.795-.79-1.76-.735-3.765-.735-5.675q.864-39.785 1.7-79.55c.035-1.564.14-3.31 1.27-4.394s3.584-.59 3.554.975q-.794 40.184-1.595 80.374c-.055 2.63 0 5.565 1.855 7.44s4.675 2 7.25 2l19.885.235c1.65 0 3.415 0 4.79-.905 1.76-1.17 2.36-3.435 2.765-5.5 5.125-26.175.56-53.174.145-79.83 0-1.25 0-2.594.76-3.584s2.54-1.235 3.15-.145c.185.404.274.846.26 1.29"/></svg>