<svg xmlns="http://www.w3.org/2000/svg" viewBox="0 0 355 355">
    <path d="M177.165 318.305c-10.011-.079-118.025-.936-125.117-2.848-.86-.23-6.015-1.618-9.473-5.827-3.648-4.442-20.744-29.78-24.02-42.4-2.791-10.75-3.582-73.214-3.989-90.207.407-16.994 1.198-79.177 3.989-89.925 3.276-12.619 20.372-37.96 24.02-42.4 3.458-4.208 8.613-5.597 9.473-5.829 7.092-1.91 115.106-2.767 125.117-2.846 10.012.08 118.025.935 125.117 2.846.859.232 6.015 1.621 9.473 5.83 3.65 4.44 20.743 29.78 24.021 42.4 2.792 10.747 3.58 72.93 3.988 89.924-.407 16.993-1.196 79.458-3.988 90.208-3.278 12.618-20.371 37.957-24.02 42.4-3.46 4.208-8.615 5.596-9.474 5.826-7.092 1.912-115.106 2.77-125.117 2.848m114.513-178.278c0-6.1-4.953-11.055-11.054-11.055H73.707c-6.103 0-11.055 4.955-11.055 11.055v88.438c0 6.102 4.952 11.054 11.055 11.054h206.917c6.1 0 11.054-4.952 11.054-11.054z"/>
    <path fill="#ffd11b" d="M294.04 140.027v88.44c0 7.403-6.01 13.416-13.416 13.416H73.706c-7.405 0-13.417-6.013-13.417-13.417v-88.439c0-7.406 6.012-13.417 13.417-13.417h206.918c7.405 0 13.417 6.011 13.417 13.417m-2.362 0c0-6.102-4.953-11.055-11.054-11.055H73.706c-6.101 0-11.055 4.953-11.055 11.055v88.44c0 6.099 4.954 11.054 11.055 11.054h206.918c6.101 0 11.054-4.955 11.054-11.055zM177.165 314.763c-10.113-.08-117.16-.829-124.195-2.724-.693-.188-4.871-1.268-7.659-4.658-3.535-4.301-20.153-28.816-23.328-41.041-2.763-10.635-3.47-72.352-3.873-89.317.404-16.963 1.11-78.4 3.873-89.034 3.175-12.224 19.793-36.74 23.328-41.04 2.788-3.392 6.966-4.471 7.659-4.658 7.034-1.895 114.082-2.644 124.195-2.724 10.112.08 117.16.829 124.195 2.724.69.187 4.871 1.266 7.658 4.658 3.535 4.3 20.153 28.816 23.329 41.04 2.762 10.634 3.468 72.071 3.873 89.034-.405 16.965-1.11 78.682-3.873 89.317-3.176 12.225-19.794 36.74-23.33 41.04-2.786 3.391-6.966 4.471-7.657 4.659-7.035 1.895-114.083 2.644-124.195 2.724m0-2.363c10.176-.08 116.583-.757 123.58-2.642.58-.157 4.11-1.03 6.448-3.877 3.46-4.208 19.76-28.175 22.867-40.135 2.743-10.558 3.395-71.78 3.797-88.719-.402-16.935-1.054-77.885-3.797-88.444-3.107-11.96-19.407-35.926-22.867-40.135-2.339-2.846-5.867-3.72-6.448-3.876-6.997-1.885-113.404-2.563-123.58-2.643-10.177.08-116.584.758-123.58 2.643-.582.156-4.11 1.03-6.449 3.876-3.459 4.209-19.76 28.174-22.867 40.135-2.742 10.558-3.395 71.5-3.797 88.436.402 16.937 1.054 78.167 3.797 88.727 3.107 11.96 19.408 35.927 22.867 40.135 2.34 2.846 5.867 3.72 6.448 3.877 6.997 1.885 113.404 2.563 123.58 2.642"/>
    <path fill="#ffd11b" d="M236.054 92.931c-1.503 0-2.74-.353-3.713-1.031s-1.71-1.65-2.151-2.858q-.708-1.812-.708-4.155c0-1.09.148-2.092.472-3.035.295-.943.707-1.768 1.296-2.505a5.54 5.54 0 0 1 2.034-1.65 6.04 6.04 0 0 1 2.652-.59c.736 0 1.414.148 2.003.443.56.324 1.032.736 1.356 1.296s.5 1.179.5 1.916c0 .677-.117 1.326-.382 1.944-.265.649-.649 1.297-1.208 1.975a15.5 15.5 0 0 1-2.093 2.062 36 36 0 0 1-3.005 2.299l-2.033-.943c1.031-.737 1.944-1.415 2.71-2.063.767-.619 1.415-1.237 1.916-1.827a7 7 0 0 0 1.12-1.68c.265-.53.383-1.03.383-1.532 0-.53-.148-.913-.442-1.178-.324-.236-.707-.354-1.179-.354-.5 0-.943.147-1.355.413-.442.265-.796.648-1.12 1.149-.354.5-.59 1.06-.766 1.68a7.7 7.7 0 0 0-.266 2.033c0 1.296.177 2.386.53 3.24.325.885.797 1.533 1.415 1.975.59.442 1.267.648 2.034.648.53 0 1.03-.088 1.473-.265a6.8 6.8 0 0 0 1.296-.766 9 9 0 0 0 1.209-1.15q.398-.441.795-.441.397.044.796.354c.265.206.442.442.5.677.03.236-.029.472-.206.737a6.8 6.8 0 0 1-1.797 1.856 8.8 8.8 0 0 1-2.122 1.032c-.736.206-1.385.294-1.944.294m-10.844-.03a.73.73 0 0 1-.62-.323 1.43 1.43 0 0 1-.146-.796c.03-.265.176-.53.383-.766.206-.206.53-.324.943-.324.383 0 .854-.118 1.385-.324.56-.207 1.149-.53 1.797-.914a22 22 0 0 0 1.974-1.385c.265-.206.501-.294.737-.235q.31.132.53.442a1.4 1.4 0 0 1 .177.707c-.03.265-.147.5-.383.707a20 20 0 0 1-2.534 1.71c-.825.5-1.591.854-2.328 1.119s-1.355.383-1.915.383m0 0a5 5 0 0 1-1.59-.235 2.6 2.6 0 0 1-1.12-.825c-.324-.354-.56-.825-.708-1.385s-.235-1.237-.235-2.033V82.56c0-.678-.089-1.238-.265-1.71a2.1 2.1 0 0 0-.855-1.03q-.574-.354-1.591-.354c-.56 0-1.12.147-1.65.413-.56.294-1.061.736-1.533 1.296q-.707.884-1.237 2.21c-.354.884-.62 1.915-.825 3.094l-.825.03q0-2.299.53-4.067c.324-1.15.796-2.15 1.385-2.947.59-.795 1.267-1.414 2.063-1.797a5.44 5.44 0 0 1 2.445-.59c.943 0 1.768.177 2.505.502.737.353 1.297.913 1.739 1.65.442.766.648 1.768.648 3.035v6.04c0 .855.118 1.474.353 1.827q.354.53 1.326.53a.73.73 0 0 1 .62.325c.117.236.176.501.147.766-.03.295-.177.56-.383.796-.207.206-.53.324-.943.324m-21.952-.058c-.413 0-.707-.059-.914-.177-.206-.147-.324-.324-.324-.59V77.993c0-.266.118-.442.324-.59.207-.118.501-.176.914-.176q.663 0 .972.176c.206.148.324.324.324.59v2.593a6.7 6.7 0 0 1 1.12-1.68c.383-.412.796-.795 1.238-1.06a5 5 0 0 1 1.296-.56 4.6 4.6 0 0 1 1.208-.177 6.2 6.2 0 0 1 2.505.5c.737.354 1.326.914 1.768 1.65.442.767.648 1.769.648 3.036v9.783c0 .265-.118.442-.324.59q-.309.176-.972.176c-.442 0-.737-.059-.943-.177-.206-.147-.324-.324-.324-.59V82.56c0-.678-.089-1.238-.236-1.71a2.1 2.1 0 0 0-.855-1.03c-.412-.236-.943-.354-1.62-.354-.442 0-.855.088-1.267.295q-.663.309-1.238.972a7.3 7.3 0 0 0-1.12 1.591c-.324.62-.618 1.356-.884 2.18v7.574c0 .265-.118.442-.324.59q-.309.176-.972.176m-7.19.059a.73.73 0 0 1-.619-.324 1.43 1.43 0 0 1-.147-.796c.03-.265.176-.53.383-.766.206-.206.53-.324.943-.324.56 0 1.12-.118 1.65-.383a5 5 0 0 0 1.503-1.179q.707-.795 1.326-2.033c.412-.796.795-1.739 1.178-2.829.089-.295.266-.442.501-.442.236.03.442.118.649.295.176.206.235.412.176.648-.383 1.385-.825 2.564-1.326 3.595-.5 1.031-1.06 1.856-1.68 2.534a6.2 6.2 0 0 1-2.062 1.503 6.1 6.1 0 0 1-2.475.5m.028 0c-.59 0-1.12-.088-1.562-.236-.471-.177-.854-.442-1.149-.825-.324-.354-.56-.825-.707-1.385s-.236-1.237-.236-2.033V77.992c0-.266.118-.442.324-.59.207-.118.501-.176.914-.176q.663 0 .972.176c.207.148.324.324.324.59v10.343c0 .854.118 1.473.354 1.826q.354.53 1.326.53a.73.73 0 0 1 .619.325c.147.236.206.501.177.766-.03.295-.177.56-.383.796-.207.206-.53.324-.973.324m-2.416-20.214c-.56 0-.973-.148-1.238-.472-.265-.295-.412-.737-.412-1.355 0-.62.147-1.09.412-1.415s.678-.471 1.238-.471.972.147 1.237.471.384.796.384 1.415c.029.618-.089 1.06-.354 1.355-.295.324-.707.472-1.267.472m-7.19 20.214a.73.73 0 0 1-.619-.324 1.43 1.43 0 0 1-.147-.796c.03-.265.177-.53.383-.766.206-.206.53-.324.943-.324.56 0 1.12-.118 1.65-.383a5 5 0 0 0 1.503-1.179q.706-.795 1.326-2.033c.412-.796.795-1.739 1.178-2.829.089-.295.266-.442.501-.442.236.03.442.118.649.295.176.206.235.412.176.648-.383 1.385-.825 2.564-1.326 3.595-.5 1.031-1.06 1.856-1.68 2.534a6.2 6.2 0 0 1-2.062 1.503 6.1 6.1 0 0 1-2.475.5m0 0c-.913 0-1.679-.147-2.357-.442a4.7 4.7 0 0 1-1.738-1.297c-.472-.56-.825-1.237-1.06-2.092-.237-.825-.355-1.797-.355-2.888V71.656c0-.265.118-.442.325-.59.206-.117.5-.176.913-.176.442 0 .796.059 1.002.177.206.147.324.324.324.59v6.01h3.713c.295 0 .5.089.648.236.118.177.177.501.177.943s-.059.737-.177.914c-.147.176-.353.265-.648.265h-3.713v6.04c0 .737.089 1.386.236 1.945s.353 1.061.648 1.444.648.707 1.09.914c.442.206.943.324 1.503.324a.73.73 0 0 1 .619.324c.147.236.206.501.177.766-.03.295-.177.56-.383.796-.207.206-.53.324-.943.324m-8.456-12.966a3.7 3.7 0 0 1-1.12-.147 4.4 4.4 0 0 1-1.002-.353c-.294-.148-.471-.325-.5-.59-.03-.236 0-.471.117-.736.118-.266.265-.442.413-.59.176-.147.324-.177.442-.118.324.177.618.295.913.383.324.089.619.148.884.148.707 0 1.356-.207 1.915-.678a7.1 7.1 0 0 0 1.444-1.532q.265-.354.62-.177c.205.118.382.295.559.56q.22.397 0 .707-1.017 1.635-2.122 2.387c-.766.5-1.62.736-2.563.736M160.56 92.843c-.442 0-.737-.059-.943-.206a1.2 1.2 0 0 1-.442-.56l-4.626-13.378c-.148-.383-.089-.737.147-1.031q.31-.442 1.15-.442.441 0 .706.176c.177.118.295.324.383.59l3.654 11.197 3.89-11.197c.088-.266.236-.472.442-.59.177-.118.412-.176.737-.176.294 0 .53.058.736.176.207.118.324.324.413.59l3.978 11.197 3.624-11.197c.089-.266.236-.472.413-.59q.265-.177.707-.176c.56 0 .972.147 1.179.412q.309.398.088 1.06l-4.685 13.379a1.12 1.12 0 0 1-.413.56c-.206.147-.5.206-.943.206s-.736-.088-.884-.206c-.176-.148-.294-.354-.383-.56l-3.83-10.815-3.743 10.815c-.088.206-.206.412-.412.56-.207.118-.53.206-.943.206m-8.634-12.081c-.56 0-1.15-.118-1.856-.354q-1.017-.354-2.652-1.15c-.295-.147-.442-.382-.472-.648 0-.265.118-.5.324-.707.206-.177.472-.206.796-.059.766.324 1.444.53 2.062.678a8 8 0 0 0 1.857.206c.619 0 1.179-.118 1.62-.324.443-.206.826-.5 1.15-.825.118-.118.236-.118.383-.059.147.089.265.265.383.472s.177.442.206.677a.64.64 0 0 1-.206.56c-.472.442-1.002.825-1.62 1.09a4.7 4.7 0 0 1-1.975.443m-6.748 12.199c-1.326 0-2.475-.324-3.506-1.002a6.9 6.9 0 0 1-2.446-2.8c-.59-1.178-.884-2.563-.884-4.125 0-1.149.177-2.21.5-3.182a7.3 7.3 0 0 1 1.445-2.505c.618-.707 1.326-1.267 2.15-1.65a6.4 6.4 0 0 1 2.741-.59c1.326 0 2.475.354 3.507 1.003 1.031.677 1.827 1.62 2.416 2.799.59 1.208.884 2.563.884 4.096 0 .913-.118 1.797-.324 2.593a8.5 8.5 0 0 1-.914 2.18 6.8 6.8 0 0 1-1.444 1.71 7.1 7.1 0 0 1-1.885 1.09 6.3 6.3 0 0 1-2.24.383m0-2.358a3.7 3.7 0 0 0 1.739-.412c.5-.265.943-.619 1.326-1.12.383-.5.648-1.09.854-1.768s.295-1.444.295-2.298c0-1.12-.177-2.092-.501-2.947-.354-.825-.855-1.473-1.473-1.915-.62-.442-1.385-.678-2.24-.678-.619 0-1.208.118-1.738.383a3.8 3.8 0 0 0-1.356 1.12c-.383.5-.648 1.12-.854 1.768-.207.678-.295 1.444-.295 2.298q0 1.68.53 2.917c.354.855.855 1.503 1.474 1.945.618.472 1.385.707 2.24.707m-11.521 2.299a.73.73 0 0 1-.62-.324 1.43 1.43 0 0 1-.147-.796c.03-.265.177-.53.383-.766.207-.206.53-.324.943-.324.53 0 1.032-.089 1.444-.265a3.6 3.6 0 0 0 1.238-.825c.353-.383.648-.855.943-1.444.265-.59.471-1.297.619-2.092.059-.295.206-.472.471-.56.265-.06.501-.03.737.059.236.088.324.294.294.589-.147 1.15-.412 2.18-.766 3.006-.383.854-.825 1.561-1.355 2.092-.56.56-1.179.972-1.886 1.237a6.3 6.3 0 0 1-2.298.413m.058 0c-.59 0-1.12-.088-1.562-.236-.471-.177-.854-.442-1.149-.825-.324-.354-.56-.825-.707-1.385s-.236-1.237-.236-2.033V66.942c0-.266.118-.442.324-.59.207-.118.501-.177.914-.177q.663 0 .972.177c.207.148.324.324.324.59v21.393c0 .854.118 1.473.354 1.826q.354.53 1.326.53a.73.73 0 0 1 .619.325c.147.236.206.501.177.766-.03.295-.177.56-.383.796-.207.206-.53.324-.973.324M115.83 104.01a3.8 3.8 0 0 1-1.945-.501c-.53-.324-.943-.796-1.238-1.385-.294-.59-.442-1.238-.442-1.974 0-1.09.236-2.063.678-2.859a6.9 6.9 0 0 1 1.856-2.18 17 17 0 0 1 2.652-1.71c1.002-.5 2.034-1.001 3.124-1.502a65 65 0 0 0 3.27-1.562 23.6 23.6 0 0 0 3.036-1.827 11.8 11.8 0 0 0 2.475-2.357c.707-.884 1.208-1.915 1.532-3.124.06-.206.236-.294.501-.265.266.06.501.177.737.354.206.206.295.412.236.619a10.8 10.8 0 0 1-1.562 3.33 12.3 12.3 0 0 1-2.387 2.563c-.913.737-1.856 1.414-2.888 1.974-1.03.59-2.033 1.15-3.064 1.65-1.031.501-2.004.973-2.947 1.444-.913.442-1.738.943-2.475 1.444a6.5 6.5 0 0 0-1.71 1.65c-.412.62-.618 1.297-.618 2.093 0 .442.059.825.177 1.12.118.294.265.5.471.618a1.4 1.4 0 0 0 .708.177c.206 0 .324.118.412.354.088.206.088.471.059.766-.03.265-.088.53-.206.766-.118.206-.266.324-.442.324m.03 0c-.206 0-.324-.118-.412-.324a1.7 1.7 0 0 1-.089-.766c.03-.295.089-.56.236-.766.118-.236.265-.354.471-.354.442 0 .825-.118 1.15-.383s.56-.648.766-1.09c.177-.472.294-1.032.383-1.68.088-.648.118-1.356.118-2.122v-16.5h-2.505a.64.64 0 0 1-.56-.295c-.147-.206-.206-.5-.206-.884 0-.383.059-.678.206-.884.118-.206.295-.294.53-.294h2.535v-6.66c0-1.179.235-2.122.677-2.858s1.032-1.267 1.739-1.592a5 5 0 0 1 2.18-.5c.973 0 1.769.176 2.446.53a6.6 6.6 0 0 1 1.65 1.208c.207.206.295.442.236.648-.059.236-.206.472-.412.708q-.398.397-.708.442-.31.043-.707-.177a10 10 0 0 0-1.149-.737c-.354-.177-.766-.265-1.267-.265-.619 0-1.12.177-1.532.56q-.62.575-.62 2.21v6.483h3.802c.472 0 .707.383.707 1.178q0 .575-.177.884c-.147.206-.324.295-.53.295h-3.801v16.354c0 1.12-.089 2.151-.236 3.094-.177.914-.471 1.739-.854 2.416-.384.678-.914 1.179-1.562 1.562-.678.383-1.503.56-2.505.56m-2.334 174.345a1.605 1.605 0 0 1-2.64-1.822c3.135-4.544 8.378-7.523 14.311-7.523 5.934 0 11.177 2.979 14.313 7.523 2.557 3.705 6.832 6.136 11.672 6.136 4.838 0 9.114-2.431 11.671-6.136 3.136-4.544 8.38-7.523 14.313-7.523s11.176 2.979 14.312 7.523c2.558 3.705 6.832 6.136 11.672 6.136 4.838 0 9.114-2.431 11.672-6.136 3.135-4.544 8.379-7.523 14.312-7.523s11.176 2.979 14.312 7.523a1.604 1.604 0 1 1-2.64 1.821c-2.558-3.705-6.834-6.135-11.672-6.135-4.84 0-9.114 2.43-11.672 6.136-3.136 4.544-8.38 7.523-14.312 7.523-5.933 0-11.177-2.98-14.312-7.523-2.558-3.706-6.834-6.136-11.672-6.136-4.84 0-9.114 2.43-11.672 6.136-3.136 4.544-8.38 7.523-14.312 7.523-5.934 0-11.177-2.98-14.313-7.523-2.557-3.706-6.833-6.136-11.672-6.136s-9.114 2.43-11.671 6.136m-73.04-112.83v-4.463h1.444v5.87H31.318l-.019-1.407zm-7.816-8.278v1.352h-1.351v-4.019h1.351v1.26h7.89v-1.352h1.37v4h-1.37v-1.241zm2.241-7.87v-3.223h7.019v5.87H31.318v-5.87h1.389v4.39h7.889v-2.982h-4.37v1.814zm0-10.649v2.982h-3.592v1.407H41.93v-1.407h-5.685v-2.982h5.685v-1.481H31.318v1.481zm7.019-8.204v1.408h-9.26v2.296h-1.351v-5.89h1.351v2.186zm0 93.494v1.519h-9.297v2.944h9.297v1.408H31.318v-10.241h10.611v1.481h-9.297v2.89zm-1.445-8.796v-2.982h-7.833v2.982zm1.445 1.407H31.318v-5.87h10.611zm-1.445-10.315v-2.426l-.444-.37h-6.833l-.556.37v2.426zm1.445 1.408H31.318v-4.167l2.463-1.704h5.87l2.278 1.889zm-1.445-14.779h1.445v5.87H31.318l-.019-5.87h1.333v4.463h2.297v-4.463h1.333v4.463h4.222zm271.917-61.984v-1.852l4.74-2.593v-.592l-4.74.018v-1.426h10.611v5.5h-5.87v-1.63zm6.074-2.426h3.223v-2.611h-3.223zm-4.63 10.76h-1.444v-5.871h10.611l.019 5.87h-1.333v-4.463H319.4v4.463h-1.333v-4.463h-4.222zm7.853 4.444h-3.223v2.981h3.223zM312.4 148.2v-1.482h4.74v-2.981h-4.74v-1.408h10.611v5.87zm1.445 4.444v4.464H312.4v-5.871h10.611l.019 1.407zm7.815 8.278v-1.351h1.351v4.018h-1.351v-1.26h-7.89v1.353h-1.37v-4h1.37v1.24zm-9.26 8.908v-1.407h9.26v-2.297h1.351v5.89h-1.351v-2.186zm10.611 11.093h-10.61v-5.87h1.332v4.388h2.075v-4.352h7.203v1.37h-5.833v2.982h5.833zm-1.37 11.297v-3h-7.908v4.24H312.4v-5.722h10.611v5.87h-3.018v-1.388zm-2.222 8.815v-2.982h3.592v-1.407h-10.61v1.407h5.684v2.982H312.4v1.481h10.611v-1.481zm-5.574 10.389H312.4v-5.87h10.611l.019 5.87h-1.333v-4.463H319.4v4.463h-1.333v-4.463h-4.222zm7.796 7.518v-3h-7.908v4.241H312.4v-5.722h10.611v5.87h-3.018v-1.389zm-9.24 10.871 5.592-3.704 5.018 3.519v-2.019l-4.537-2.833h4.537v-1.408h-10.61v1.408h4.74v.278l-4.74 2.574zM41.928 116.993a5.315 5.315 0 0 1-5.315 5.315 5.315 5.315 0 0 1-5.315-5.315 5.315 5.315 0 0 1 5.315-5.315 5.315 5.315 0 0 1 5.315 5.315m0 125.115a5.315 5.315 0 0 1-5.315 5.314 5.315 5.315 0 0 1-5.315-5.314 5.315 5.315 0 0 1 5.315-5.315 5.315 5.315 0 0 1 5.315 5.315m281.102 0a5.315 5.315 0 0 1-5.315 5.314 5.315 5.315 0 0 1-5.315-5.314 5.315 5.315 0 0 1 5.315-5.315 5.315 5.315 0 0 1 5.315 5.315"/>
</svg>
