<svg
  id="watch-display"
  xmlns="http://www.w3.org/2000/svg"
  viewBox="0 0 1271 1311"
  width="640"
>
  <defs>
    <radialGradient
      id="light-gradient"
      cx="635"
      cy="687"
      fx="260.1751499985994"
      r="374.83"
      gradientUnits="userSpaceOnUse"
    >
      <stop offset="0.28" stop-color="white" />
      <stop offset="0.46" stop-color="#ccc" stop-opacity="0.7" />
      <stop offset="0.65" stop-color="#999" stop-opacity="0.4" />
      <stop offset="0.82" stop-color="#666" stop-opacity="0.19" />
      <stop offset="0.94" stop-color="#333" stop-opacity="0.05" />
      <stop offset="1" stop-color="#000" stop-opacity="0" />
    </radialGradient>
    <filter id="ledcolor">
      <feColorMatrix
        in="SourceGraphic"
        type="matrix"
        values="1 0 0 0 0
                0 1 0 0 0
                0 0 1 0 0
                0 0 0 1 0"
      />
    </filter>
  </defs>
  <g id="layer">
    <path
      id="btn3"
      d="M1226,777h39.08a5.92,5.92,0,0,1,5.92,5.92v58.16a5.92,5.92,0,0,1-5.92,5.92H1226a0,0,0,0,1,0,0V777A0,0,0,0,1,1226,777Z"
      style="fill: #999"
    />
    <path
      id="btn2"
      d="M2593.5,686h39.08a5.92,5.92,0,0,1,5.92,5.92v58.16a5.92,5.92,0,0,1-5.92,5.92H2593.5a0,0,0,0,1,0,0V686A0,0,0,0,1,2593.5,686Z"
      transform="translate(2638.5 1533) rotate(180)"
      style="fill: #999"
    />
    <path
      id="btn1"
      d="M2593.5,386h39.08a5.92,5.92,0,0,1,5.92,5.92v58.16a5.92,5.92,0,0,1-5.92,5.92H2593.5a0,0,0,0,1,0,0V386A0,0,0,0,1,2593.5,386Z"
      transform="translate(2638.5 933) rotate(180)"
      style="fill: #999"
    />
    <g id="outlines" class="outlines-group">
      <path
        id="outline_1"
        d="M2855-91h752c16,0,17,13,17,13l35,112c5,14,6,13,6,13l122,206a23,23,0,0,0,6,7l25,24a31.37,31.37,0,0,1,9,17l13,187c0,16-8,19-8,19l-29,24c2,46,0,84,0,84l28,21c6,5,6,15,6,15l-13,187c-1,12-7,16-7,16l-32,30a39.08,39.08,0,0,0-4,5l-121,206h0a107.12,107.12,0,0,0-6,12l-37,101a19.32,19.32,0,0,1-17,12H2868c-21,0-24-12-24-12l-37-99a123.46,123.46,0,0,0-8-18L2679,888c-4-6-12-12-12-12l-22-21c-9-9-8-19-8-19l-15-182c-1-10,4-14,4-14l30-27V532l-28-24a24.69,24.69,0,0,1-7-16l13-190c1-11,7-15,7-15l34-33c6-5,7-9,7-9L2792,52c7-10,9-18,9-18l36-111C2840-91,2855-91,2855-91Z"
        transform="translate(-2593.5 91)"
        style="fill: #333"
      />
      <path
        id="outline_2"
        d="M2799,1060c18.5,26.5,37,27,37,27,455.44,18.42,790,0,790,0s24,0,41-29l86-154s16.5-20.5,20-55c30-295.67,1-557,1-557s1-17-13-47L3672,87c-14-23-37-22-37-22-389.5-13.5-809,0-809,0-29,1-37,24-37,24l-87,153a119.3,119.3,0,0,0-17,48c-24.58,335.84,3,569,3,569,4.5,16.5,17.86,37.6,17.86,37.6Z"
        transform="translate(-2593.5 91)"
        style="fill: #3d3d3d"
      />
      <g id="outline_center">
        <path
          d="M3712.11,308.15C3711,283,3693,258,3693,258l-43-69c-20-34-60-35-60-35-360-13-725,1-725,1-33.26,1.17-49,25-49,25l-53,84c-15,25-17,46-17,46-22,287-1,518-1,518,3,30,21,56,21,56l42,72c23,37,60,40,60,40,392,15,716.5.5,716.5.5C3633,992,3653,953,3653,953l43-73s10-13.87,13.5-43.5C3739,587,3712.11,308.15,3712.11,308.15ZM3570,728.32A34.68,34.68,0,0,1,3535.32,763H2921.68A34.68,34.68,0,0,1,2887,728.32V463.68A34.68,34.68,0,0,1,2921.68,429h613.64A34.68,34.68,0,0,1,3570,463.68Z"
          transform="translate(-2593.5 91)"
          style="fill: #333"
        />
      </g>

      <g id="screen">
        <rect
          x="293.5"
          y="520"
          width="683"
          height="334"
          rx="34.68"
          style="fill: #777b7a"
        />
      </g>
    </g>

    <g id="light" style="opacity: 0">
      <rect
        x="293.5"
        y="520"
        width="683"
        height="334"
        rx="34.68"
        style="fill: url(#light-gradient)"
        filter="url(#ledcolor)"
      />
    </g>

    <g id="displays">
      <g id="classic">
        <g id="dots">
          <rect
            data-com="1"
            data-seg="16"
            id="dot_down"
            x="535.5"
            y="705"
            width="19"
            height="19"
            rx="9.5"
            style="fill: #304246"
          />
          <rect
            data-com="1"
            data-seg="16"
            id="dot_up"
            x="531.5"
            y="776"
            width="19"
            height="19"
            rx="9.5"
            style="fill: #304246"
          />
        </g>
        <g id="hours">
          <g id="hour_2">
            <path
              data-com="1"
              data-seg="18"
              id="hour_2_A"
              d="M2979,580h-49c-4,0-5,1-5,1l-2,1a2.19,2.19,0,0,0-1,3l13,13a6.19,6.19,0,0,0,4,2h28c4,0,5-3,5-3l9-14C2983,580,2979,580,2979,580Z"
              transform="translate(-2593.5 91)"
              style="fill: #304246"
            />
            <path
              data-com="2"
              data-seg="19"
              id="hour_2_B"
              d="M2971.57,641.22a3.55,3.55,0,0,0,1.94,3l9.88,6.19s3,1.06,5-.9L2991,646a4.38,4.38,0,0,0,1-3l2-50a4.38,4.38,0,0,0-1-3l-4-5c-2-3-4,0-4,0l-11,17a4.62,4.62,0,0,0-1,3l-1.43,36.22"
              transform="translate(-2593.5 91)"
              style="fill: #304246"
            />
            <path
              data-com="0"
              data-seg="19"
              id="hour_2_C"
              d="M2990,669l-4,52a16.85,16.85,0,0,1-4,8l-2,3c-4,5-6,1-6,1l-7-16a9.79,9.79,0,0,1-1-7l2-40a4.33,4.33,0,0,1,2-4l10-6c5-3,7,1,7,1l2,4A10,10,0,0,1,2990,669Z"
              transform="translate(-2593.5 91)"
              style="fill: #304246"
            />
            <path
              data-com="1"
              data-seg="18"
              id="hour_2_D"
              d="M2961,718h-27a12.68,12.68,0,0,0-6,2l-14,8c-4,2-2,4-2,4l6,4a10,10,0,0,0,4,1h46c3,0,2-3,2-3l-6-14a3.55,3.55,0,0,0-3-2"
              transform="translate(-2593.5 91)"
              style="fill: #304246"
            />
            <path
              data-com="0"
              data-seg="18"
              id="hour_2_E"
              d="M2930,669l-2,43a3.7,3.7,0,0,1-2,3l-14,8c-4,2-4-1-4-1l2-54c0-3,1-4,1-4l2-3c2-2,5-1,5-1l10,6a3.55,3.55,0,0,1,2,3"
              transform="translate(-2593.5 91)"
              style="fill: #304246"
            />
            <path
              data-com="2"
              data-seg="18"
              id="hour_2_F"
              d="M2933,640a6.93,6.93,0,0,1-3,4l-10,7c-8,4-8-5-8-5l3-48a21.8,21.8,0,0,1,1-6l2-3a2.77,2.77,0,0,1,4,0l11,12a7.81,7.81,0,0,1,2,5Z"
              transform="translate(-2593.5 91)"
              style="fill: #304246"
            />
            <path
              data-com="1"
              data-seg="19"
              id="hour_2_G"
              d="M2923,654l11.5-6.5a7.65,7.65,0,0,1,5-1l26.5.5c3,0,4,1,4,1l8,6c3,2,0,3,0,3l-11,6h0a13.38,13.38,0,0,1-5,1h-24a13.83,13.83,0,0,1-7-2l-8-5C2921,655,2923,654,2923,654Z"
              transform="translate(-2593.5 91)"
              style="fill: #304246"
            />
          </g>
          <g id="hour_1">
            <path
              data-com="2"
              data-seg="20"
              id="hour_1_A"
              d="M3092,580h-49c-4,0-5,1-5,1l-2,1a2.19,2.19,0,0,0-1,3l13,13a6.19,6.19,0,0,0,4,2h28c4,0,5-3,5-3l9-14C3096,580,3092,580,3092,580Z"
              transform="translate(-2593.5 91)"
              style="fill: #304246"
            />
            <path
              data-com="2"
              data-seg="21"
              id="hour_1_B"
              d="M3084.57,641.22a3.55,3.55,0,0,0,1.94,3l9.88,6.19s3,1.06,5-.9L3104,646a4.38,4.38,0,0,0,1-3l2-50a4.38,4.38,0,0,0-1-3l-4-5c-2-3-4,0-4,0l-11,17a4.62,4.62,0,0,0-1,3l-1.43,36.22"
              transform="translate(-2593.5 91)"
              style="fill: #304246"
            />
            <path
              data-com="1"
              data-seg="21"
              id="hour_1_C"
              d="M3103,669l-4,52a16.85,16.85,0,0,1-4,8l-2,3c-4,5-6,1-6,1l-7-16a9.79,9.79,0,0,1-1-7l2-40a4.33,4.33,0,0,1,2-4l10-6c5-3,7,1,7,1l2,4A10,10,0,0,1,3103,669Z"
              transform="translate(-2593.5 91)"
              style="fill: #304246"
            />
            <path
              data-com="0"
              data-seg="21"
              id="hour_1_D"
              d="M3074,718h-27a12.68,12.68,0,0,0-6,2l-14,8c-4,2-2,4-2,4l6,4a10,10,0,0,0,4,1h46c3,0,2-3,2-3l-6-14a3.55,3.55,0,0,0-3-2"
              transform="translate(-2593.5 91)"
              style="fill: #304246"
            />
            <path
              data-com="0"
              data-seg="20"
              id="hour_1_E"
              d="M3043,669l-2,43a3.7,3.7,0,0,1-2,3l-14,8c-4,2-4-1-4-1l2-54c0-3,1-4,1-4l2-3c2-2,5-1,5-1l10,6a3.55,3.55,0,0,1,2,3"
              transform="translate(-2593.5 91)"
              style="fill: #304246"
            />
            <path
              data-com="1"
              data-seg="17"
              id="hour_1_F"
              d="M3046,640a6.93,6.93,0,0,1-3,4l-10,7c-8,4-8-5-8-5l3-48a21.8,21.8,0,0,1,1-6l2-3a2.77,2.77,0,0,1,4,0l11,12a7.81,7.81,0,0,1,2,5Z"
              transform="translate(-2593.5 91)"
              style="fill: #304246"
            />
            <path
              data-com="1"
              data-seg="20"
              id="hour_1_G"
              d="M3036,654l11.5-6.5a7.65,7.65,0,0,1,5-1l26.5.5c3,0,4,1,4,1l8,6c3,2,0,3,0,3l-11,6h0a13.38,13.38,0,0,1-5,1h-24a13.83,13.83,0,0,1-7-2l-8-5C3034,655,3036,654,3036,654Z"
              transform="translate(-2593.5 91)"
              style="fill: #304246"
            />
          </g>
        </g>
        <g id="minutes">
          <g id="minute_2">
            <path
              data-com="0"
              data-seg="22"
              id="minute_2_A"
              d="M3239,580h-49c-4,0-5,1-5,1l-2,1a2.19,2.19,0,0,0-1,3l13,13a6.19,6.19,0,0,0,4,2h28c4,0,5-3,5-3l9-14C3243,580,3239,580,3239,580Z"
              transform="translate(-2593.5 91)"
              style="fill: #304246"
            />
            <path
              data-com="2"
              data-seg="23"
              id="minute_2_B"
              d="M3231.57,641.22a3.55,3.55,0,0,0,1.94,3l9.88,6.19s3,1.06,5-.9L3251,646a4.38,4.38,0,0,0,1-3l2-50a4.38,4.38,0,0,0-1-3l-4-5c-2-3-4,0-4,0l-11,17a4.62,4.62,0,0,0-1,3l-1.43,36.22"
              transform="translate(-2593.5 91)"
              style="fill: #304246"
            />
            <path
              data-com="0"
              data-seg="23"
              id="minute_2_C"
              d="M3250,669l-4,52a16.85,16.85,0,0,1-4,8l-2,3c-4,5-6,1-6,1l-7-16a9.79,9.79,0,0,1-1-7l2-40a4.33,4.33,0,0,1,2-4l10-6c5-3,7,1,7,1l2,4A10,10,0,0,1,3250,669Z"
              transform="translate(-2593.5 91)"
              style="fill: #304246"
            />
            <path
              data-com="0"
              data-seg="22"
              id="minute_2_D"
              d="M3221,718h-27a12.68,12.68,0,0,0-6,2l-14,8c-4,2-2,4-2,4l6,4a10,10,0,0,0,4,1h46c3,0,2-3,2-3l-6-14a3.55,3.55,0,0,0-3-2"
              transform="translate(-2593.5 91)"
              style="fill: #304246"
            />
            <path
              data-com="1"
              data-seg="22"
              id="minute_2_E"
              d="M3190,669l-2,43a3.7,3.7,0,0,1-2,3l-14,8c-4,2-4-1-4-1l2-54c0-3,1-4,1-4l2-3c2-2,5-1,5-1l10,6a3.55,3.55,0,0,1,2,3"
              transform="translate(-2593.5 91)"
              style="fill: #304246"
            />
            <path
              data-com="2"
              data-seg="22"
              id="minute_2_F"
              d="M3193,640a6.93,6.93,0,0,1-3,4l-10,7c-8,4-8-5-8-5l3-48a21.8,21.8,0,0,1,1-6l2-3a2.77,2.77,0,0,1,4,0l11,12a7.81,7.81,0,0,1,2,5Z"
              transform="translate(-2593.5 91)"
              style="fill: #304246"
            />
            <path
              data-com="1"
              data-seg="23"
              id="minute_2_G"
              d="M3183,654l11.5-6.5a7.65,7.65,0,0,1,5-1l26.5.5c3,0,4,1,4,1l8,6c3,2,0,3,0,3l-11,6h0a13.38,13.38,0,0,1-5,1h-24a13.83,13.83,0,0,1-7-2l-8-5C3181,655,3183,654,3183,654Z"
              transform="translate(-2593.5 91)"
              style="fill: #304246"
            />
          </g>
          <g id="minute_1">
            <path
              data-com="2"
              data-seg="1"
              id="minute_1_A"
              d="M3352,580h-49c-4,0-5,1-5,1l-2,1a2.19,2.19,0,0,0-1,3l13,13a6.19,6.19,0,0,0,4,2h28c4,0,5-3,5-3l9-14C3356,580,3352,580,3352,580Z"
              transform="translate(-2593.5 91)"
              style="fill: #304246"
            />
            <path
              data-com="2"
              data-seg="10"
              id="minute_1_B"
              d="M3344.57,641.22a3.55,3.55,0,0,0,1.94,3l9.88,6.19s3,1.06,5-.9L3364,646a4.38,4.38,0,0,0,1-3l2-50a4.38,4.38,0,0,0-1-3l-4-5c-2-3-4,0-4,0l-11,17a4.62,4.62,0,0,0-1,3l-1.43,36.22"
              transform="translate(-2593.5 91)"
              style="fill: #304246"
            />
            <path
              data-com="0"
              data-seg="1"
              id="minute_1_C"
              d="M3363,669l-4,52a16.85,16.85,0,0,1-4,8l-2,3c-4,5-6,1-6,1l-7-16a9.79,9.79,0,0,1-1-7l2-40a4.33,4.33,0,0,1,2-4l10-6c5-3,7,1,7,1l2,4A10,10,0,0,1,3363,669Z"
              transform="translate(-2593.5 91)"
              style="fill: #304246"
            />
            <path
              data-com="0"
              data-seg="0"
              id="minute_1_D"
              d="M3334,718h-27a12.68,12.68,0,0,0-6,2l-14,8c-4,2-2,4-2,4l6,4a10,10,0,0,0,4,1h46c3,0,2-3,2-3l-6-14a3.55,3.55,0,0,0-3-2"
              transform="translate(-2593.5 91)"
              style="fill: #304246"
            />
            <path
              data-com="1"
              data-seg="0"
              id="minute_1_E"
              d="M3303,669l-2,43a3.7,3.7,0,0,1-2,3l-14,8c-4,2-4-1-4-1l2-54c0-3,1-4,1-4l2-3c2-2,5-1,5-1l10,6a3.55,3.55,0,0,1,2,3"
              transform="translate(-2593.5 91)"
              style="fill: #304246"
            />
            <path
              data-com="2"
              data-seg="0"
              id="minute_1_F"
              d="M3306,640a6.93,6.93,0,0,1-3,4l-10,7c-8,4-8-5-8-5l3-48a21.8,21.8,0,0,1,1-6l2-3a2.77,2.77,0,0,1,4,0l11,12a7.81,7.81,0,0,1,2,5Z"
              transform="translate(-2593.5 91)"
              style="fill: #304246"
            />
            <path
              data-com="1"
              data-seg="1"
              id="minute_1_G"
              d="M3296,654l11.5-6.5a7.65,7.65,0,0,1,5-1l26.5.5c3,0,4,1,4,1l8,6c3,2,0,3,0,3l-11,6h0a13.38,13.38,0,0,1-5,1h-24a13.83,13.83,0,0,1-7-2l-8-5C3294,655,3296,654,3296,654Z"
              transform="translate(-2593.5 91)"
              style="fill: #304246"
            />
          </g>
        </g>
        <g id="seconds">
          <g id="second_2">
            <path
              data-com="2"
              data-seg="2"
              id="second_2_A"
              d="M3446.93,619h-37.46c-3,0-3.82.76-3.82.76l-1.53.77a1.68,1.68,0,0,0-.76,2.29l9.94,9.94a4.73,4.73,0,0,0,3,1.53h21.41a3.82,3.82,0,0,0,3.82-2.3l6.88-10.7C3450,619,3446.93,619,3446.93,619Z"
              transform="translate(-2593.5 91)"
              style="fill: #304246"
            />
            <path
              data-com="2"
              data-seg="3"
              id="second_2_B"
              d="M3441.25,665.8a2.72,2.72,0,0,0,1.48,2.32l7.56,4.73a4,4,0,0,0,3.83-.69l2-2.71a3.38,3.38,0,0,0,.76-2.3l1.53-38.21a3.38,3.38,0,0,0-.76-2.3l-3.06-3.82c-1.53-2.29-3.06,0-3.06,0l-8.4,13a3.5,3.5,0,0,0-.77,2.29l-1.09,27.69"
              transform="translate(-2593.5 91)"
              style="fill: #304246"
            />
            <path
              data-com="0"
              data-seg="4"
              id="second_2_C"
              d="M3455.33,687l-3,39.74a13,13,0,0,1-3.06,6.12l-1.53,2.29c-3.06,3.82-4.58.76-4.58.76l-5.35-12.23a7.5,7.5,0,0,1-.77-5.35l1.53-30.57a3.32,3.32,0,0,1,1.53-3.06l7.64-4.58c3.82-2.3,5.35.76,5.35.76l1.53,3.06A7.67,7.67,0,0,1,3455.33,687Z"
              transform="translate(-2593.5 91)"
              style="fill: #304246"
            />
            <path
              data-com="0"
              data-seg="3"
              id="second_2_D"
              d="M3433.17,724.48h-20.64A9.66,9.66,0,0,0,3408,726l-10.7,6.11c-3.06,1.53-1.53,3.06-1.53,3.06l4.58,3.06a7.67,7.67,0,0,0,3.06.76h35.16c2.29,0,1.53-2.29,1.53-2.29l-4.59-10.7a2.71,2.71,0,0,0-2.29-1.53"
              transform="translate(-2593.5 91)"
              style="fill: #304246"
            />
            <path
              data-com="0"
              data-seg="2"
              id="second_2_E"
              d="M3409.47,687,3408,719.89a2.82,2.82,0,0,1-1.53,2.29l-10.7,6.12c-3.06,1.53-3.06-.76-3.06-.76l1.53-41.28c0-2.29.76-3.06.76-3.06l1.53-2.29a4,4,0,0,1,3.82-.76l7.65,4.58a2.73,2.73,0,0,1,1.52,2.3"
              transform="translate(-2593.5 91)"
              style="fill: #304246"
            />
            <path
              data-com="1"
              data-seg="2"
              id="second_2_F"
              d="M3411.77,664.86a5.34,5.34,0,0,1-2.3,3.06l-7.64,5.35c-6.11,3.05-6.11-3.82-6.11-3.82l2.29-36.69a16.73,16.73,0,0,1,.76-4.59l1.53-2.29a2.12,2.12,0,0,1,3.06,0l8.41,9.17a6,6,0,0,1,1.53,3.82Z"
              transform="translate(-2593.5 91)"
              style="fill: #304246"
            />
            <path
              data-com="1"
              data-seg="3"
              id="second_2_G"
              d="M3404.12,675.56l8.79-5a5.9,5.9,0,0,1,3.83-.76l20.25.38c2.29,0,3.06.76,3.06.76l6.11,4.59c2.3,1.53,0,2.29,0,2.29l-8.4,4.59h0a10.32,10.32,0,0,1-3.83.76h-18.34a10.6,10.6,0,0,1-5.35-1.52l-6.12-3.83C3402.6,676.32,3404.12,675.56,3404.12,675.56Z"
              transform="translate(-2593.5 91)"
              style="fill: #304246"
            />
          </g>
          <g id="second_1">
            <path
              data-com="2"
              data-seg="4"
              id="second_1_A"
              d="M3528.54,619h-37.46c-3,0-3.82.76-3.82.76l-1.53.77a1.67,1.67,0,0,0-.76,2.29l9.93,9.94a4.74,4.74,0,0,0,3.06,1.53h21.4a3.81,3.81,0,0,0,3.82-2.3l6.88-10.7C3531.59,619,3528.54,619,3528.54,619Z"
              transform="translate(-2593.5 91)"
              style="fill: #304246"
            />
            <path
              data-com="2"
              data-seg="5"
              id="second_1_B"
              d="M3522.85,665.8a2.74,2.74,0,0,0,1.49,2.32l7.55,4.73a4,4,0,0,0,3.84-.69l2-2.71a3.38,3.38,0,0,0,.76-2.3l1.53-38.21a3.38,3.38,0,0,0-.76-2.3l-3.06-3.82c-1.53-2.29-3.06,0-3.06,0l-8.41,13a3.52,3.52,0,0,0-.76,2.29l-1.1,27.69"
              transform="translate(-2593.5 91)"
              style="fill: #304246"
            />
            <path
              data-com="1"
              data-seg="6"
              id="second_1_C"
              d="M3536.94,687l-3.05,39.74a13,13,0,0,1-3.06,6.12l-1.53,2.29c-3.06,3.82-4.59.76-4.59.76l-5.35-12.23a7.46,7.46,0,0,1-.76-5.35l1.53-30.57a3.32,3.32,0,0,1,1.53-3.06l7.64-4.58c3.82-2.3,5.35.76,5.35.76l1.53,3.06A7.67,7.67,0,0,1,3536.94,687Z"
              transform="translate(-2593.5 91)"
              style="fill: #304246"
            />
            <path
              data-com="0"
              data-seg="6"
              id="second_1_D"
              d="M3514.78,724.48h-20.64a9.72,9.72,0,0,0-4.59,1.53l-10.7,6.11c-3,1.53-1.53,3.06-1.53,3.06l4.59,3.06a7.67,7.67,0,0,0,3.06.76h35.16c2.29,0,1.53-2.29,1.53-2.29l-4.59-10.7a2.71,2.71,0,0,0-2.29-1.53"
              transform="translate(-2593.5 91)"
              style="fill: #304246"
            />
            <path
              data-com="0"
              data-seg="5"
              id="second_1_E"
              d="M3491.08,687l-1.53,32.86a2.82,2.82,0,0,1-1.52,2.29l-10.71,6.12c-3.05,1.53-3.05-.76-3.05-.76l1.53-41.28c0-2.29.76-3.06.76-3.06l1.53-2.29a4,4,0,0,1,3.82-.76l7.64,4.58a2.73,2.73,0,0,1,1.53,2.3"
              transform="translate(-2593.5 91)"
              style="fill: #304246"
            />
            <path
              data-com="1"
              data-seg="4"
              id="second_1_F"
              d="M3493.38,664.86a5.34,5.34,0,0,1-2.3,3.06l-7.64,5.35c-6.12,3.05-6.12-3.82-6.12-3.82l2.3-36.69a16.73,16.73,0,0,1,.76-4.59l1.53-2.29a2.12,2.12,0,0,1,3.06,0l8.41,9.17a6,6,0,0,1,1.52,3.82Z"
              transform="translate(-2593.5 91)"
              style="fill: #304246"
            />
            <path
              data-com="1"
              data-seg="5"
              id="second_1_G"
              d="M3485.73,675.56l8.79-5a5.87,5.87,0,0,1,3.82-.76l20.26.38c2.29,0,3.06.76,3.06.76l6.11,4.59c2.29,1.53,0,2.29,0,2.29l-8.41,4.59h0a10.28,10.28,0,0,1-3.82.76H3497.2a10.6,10.6,0,0,1-5.35-1.52l-6.12-3.83C3484.2,676.32,3485.73,675.56,3485.73,675.56Z"
              transform="translate(-2593.5 91)"
              style="fill: #304246"
            />
          </g>
        </g>
        <g id="days">
          <g id="day_2">
            <path
              data-com="1"
              data-seg="9"
              id="day_2_A"
              d="M3454.41,467h-31.34c-2.56,0-3.2.53-3.2.53l-1.28.53a1.05,1.05,0,0,0-.64,1.58l8.32,6.88a4.42,4.42,0,0,0,2.56,1.05h17.9c2.56,0,3.2-1.58,3.2-1.58l5.76-7.4C3457,467,3454.41,467,3454.41,467Z"
              transform="translate(-2593.5 91)"
              style="fill: #304246"
            />
            <path
              data-com="0"
              data-seg="9"
              id="day_2_B"
              d="M3449.65,499.37a1.84,1.84,0,0,0,1.25,1.6l6.32,3.27a4,4,0,0,0,3.21-.47l1.65-1.88a2.11,2.11,0,0,0,.64-1.58l1.28-26.44a2.11,2.11,0,0,0-.64-1.58l-2.56-2.65a1.56,1.56,0,0,0-2.56,0l-7,9a2.21,2.21,0,0,0-.64,1.59l-.92,19.15"
              transform="translate(-2593.5 91)"
              style="fill: #304246"
            />
            <path
              data-com="2"
              data-seg="9"
              id="day_2_C"
              d="M3461.44,514.05l-2.56,27.49a8.64,8.64,0,0,1-2.55,4.23l-1.28,1.59c-2.56,2.64-3.84.53-3.84.53l-4.48-8.46a4.37,4.37,0,0,1-.64-3.7l1.28-21.15a2.28,2.28,0,0,1,1.28-2.12l6.4-3.17c3.19-1.58,4.47.53,4.47.53l1.28,2.12A4.48,4.48,0,0,1,3461.44,514.05Z"
              transform="translate(-2593.5 91)"
              style="fill: #304246"
            />
            <path
              data-com="1"
              data-seg="9"
              id="day_2_D"
              d="M3442.9,540h-17.27a9.28,9.28,0,0,0-3.84,1l-8.95,4.23c-2.56,1.06-1.28,2.12-1.28,2.12l3.84,2.11a7.43,7.43,0,0,0,2.55.53h29.42c1.92,0,1.28-1.59,1.28-1.59l-3.84-7.4a2.39,2.39,0,0,0-1.91-1"
              transform="translate(-2593.5 91)"
              style="fill: #304246"
            />
            <path
              data-com="0"
              data-seg="10"
              id="day_2_E"
              d="M3423.07,514.05l-1.28,22.73c0,1.06-1.28,1.59-1.28,1.59l-9,4.23c-2.56,1.06-2.56-.53-2.56-.53l1.28-28.55a2.74,2.74,0,0,1,.64-2.11l1.28-1.59a3.92,3.92,0,0,1,3.2-.53l6.39,3.17a1.85,1.85,0,0,1,1.28,1.59"
              transform="translate(-2593.5 91)"
              style="fill: #304246"
            />
            <path
              data-com="1"
              data-seg="9"
              id="day_2_G"
              d="M3418.59,506.12l7.36-3.44a5.79,5.79,0,0,1,3.2-.52l16.94.26a4.28,4.28,0,0,1,2.56.53l5.12,3.17c1.92,1.06,0,1.59,0,1.59l-7,3.17h0a10.16,10.16,0,0,1-3.2.53h-15.34a10.16,10.16,0,0,1-4.48-1.06l-5.12-2.64C3417.31,506.65,3418.59,506.12,3418.59,506.12Z"
              transform="translate(-2593.5 91)"
              style="fill: #304246"
            />
          </g>
          <g id="day_1">
            <path
              data-com="0"
              data-seg="7"
              id="day_1_A"
              d="M3525.41,468h-31.34c-2.56,0-3.2.53-3.2.53l-1.28.53a1.05,1.05,0,0,0-.64,1.58l8.32,6.88a4.42,4.42,0,0,0,2.56,1.05h17.9c2.56,0,3.2-1.58,3.2-1.58l5.76-7.4C3528,468,3525.41,468,3525.41,468Z"
              transform="translate(-2593.5 91)"
              style="fill: #304246"
            />
            <path
              data-com="1"
              data-seg="7"
              id="day_1_B"
              d="M3520.65,500.37a1.84,1.84,0,0,0,1.25,1.6l6.32,3.27a4,4,0,0,0,3.21-.47l1.65-1.88a2.11,2.11,0,0,0,.64-1.58l1.28-26.44a2.11,2.11,0,0,0-.64-1.58l-2.56-2.65a1.56,1.56,0,0,0-2.56,0l-7,9a2.21,2.21,0,0,0-.64,1.59l-.92,19.15"
              transform="translate(-2593.5 91)"
              style="fill: #304246"
            />
            <path
              data-com="2"
              data-seg="7"
              id="day_1_C"
              d="M3532.44,515.05l-2.56,27.49a8.64,8.64,0,0,1-2.55,4.23l-1.28,1.59c-2.56,2.64-3.84.53-3.84.53l-4.48-8.46a4.37,4.37,0,0,1-.64-3.7l1.28-21.15a2.28,2.28,0,0,1,1.28-2.12l6.4-3.17c3.19-1.58,4.47.53,4.47.53l1.28,2.12A4.48,4.48,0,0,1,3532.44,515.05Z"
              transform="translate(-2593.5 91)"
              style="fill: #304246"
            />
            <path
              data-com="2"
              data-seg="6"
              id="day_1_D"
              d="M3513.9,541h-17.27a9.28,9.28,0,0,0-3.84,1l-8.95,4.23c-2.56,1.06-1.28,2.12-1.28,2.12l3.84,2.11a7.43,7.43,0,0,0,2.55.53h29.42c1.92,0,1.28-1.59,1.28-1.59l-3.84-7.4a2.39,2.39,0,0,0-1.91-1"
              transform="translate(-2593.5 91)"
              style="fill: #304246"
            />
            <path
              data-com="2"
              data-seg="8"
              id="day_1_E"
              d="M3494.07,515.05l-1.28,22.73c0,1.06-1.28,1.59-1.28,1.59l-9,4.23c-2.56,1.06-2.56-.53-2.56-.53l1.28-28.55a2.74,2.74,0,0,1,.64-2.11l1.28-1.59a3.92,3.92,0,0,1,3.2-.53l6.39,3.17a1.85,1.85,0,0,1,1.28,1.59"
              transform="translate(-2593.5 91)"
              style="fill: #304246"
            />
            <path
              data-com="0"
              data-seg="8"
              id="day_1_F"
              d="M3496,499.72a3.89,3.89,0,0,1-1.92,2.11l-6.4,3.71c-5.11,2.11-5.11-2.65-5.11-2.65l1.92-25.37a9.8,9.8,0,0,1,.64-3.18l1.28-1.58a2,2,0,0,1,2.55,0l7,6.34a3.73,3.73,0,0,1,1.28,2.65Z"
              transform="translate(-2593.5 91)"
              style="fill: #304246"
            />
            <path
              data-com="1"
              data-seg="8"
              id="day_1_G"
              d="M3489.59,507.12l7.36-3.44a5.79,5.79,0,0,1,3.2-.52l16.94.26a4.28,4.28,0,0,1,2.56.53l5.12,3.17c1.92,1.06,0,1.59,0,1.59l-7,3.17h0a10.16,10.16,0,0,1-3.2.53h-15.34a10.16,10.16,0,0,1-4.48-1.06l-5.12-2.64C3488.31,507.65,3489.59,507.12,3489.59,507.12Z"
              transform="translate(-2593.5 91)"
              style="fill: #304246"
            />
          </g>
        </g>
        <g id="mode">
          <g id="mode_2">
            <path
              data-com="0"
              data-seg="13"
              id="mode_2_A"
              d="M3170,468l-4,6a3.49,3.49,0,0,1-2,1h-25a3.1,3.1,0,0,1-2-1l-5-7s-1-1,1-1h36C3171,466,3170,468,3170,468Z"
              transform="translate(-2593.5 91)"
              style="fill: #304246"
            />
            <path
              data-com="1"
              data-seg="13"
              id="mode_2_B"
              d="M3168,474l4-5a1.39,1.39,0,0,1,2,0l1,1a3.89,3.89,0,0,1,1,3l-1,22c-1,5-5,3-5,3l-3.56-2.19a3.45,3.45,0,0,1-.9-2L3166,479A7.65,7.65,0,0,1,3168,474Z"
              transform="translate(-2593.5 91)"
              style="fill: #304246"
            />
            <path
              data-com="2"
              data-seg="13"
              id="mode_2_C"
              d="M3165,529.47l3.51,6a1.28,1.28,0,0,0,2,.19l1.09-1a4.66,4.66,0,0,0,1.28-3.29l1-23.8c-.53-5.75-4.7-3.87-4.7-3.87l-3.75,2.13a4.09,4.09,0,0,0-1.09,2.23l-.83,15.59A9.28,9.28,0,0,0,3165,529.47Z"
              transform="translate(-2593.5 91)"
              style="fill: #304246"
            />
            <path
              data-com="2"
              data-seg="15"
              id="mode_2_D"
              d="M3129,537l4-6a3.49,3.49,0,0,1,2-1h26a3.1,3.1,0,0,1,2,1l5,7s1,1-1,1h-37C3128,539,3129,537,3129,537Z"
              transform="translate(-2593.5 91)"
              style="fill: #304246"
            />
            <path
              data-com="2"
              data-seg="14"
              id="mode_2_E"
              d="M3131.4,529.78l-4,5.63a1.29,1.29,0,0,1-2,0l-1-1.11a4.58,4.58,0,0,1-1-3.36l1.12-23.57c1-5.61,5-3.39,5-3.39l3.55,2.43a4.11,4.11,0,0,1,.89,2.29l-.55,15.45A9.15,9.15,0,0,1,3131.4,529.78Z"
              transform="translate(-2593.5 91)"
              style="fill: #304246"
            />
            <path
              data-com="0"
              data-seg="14"
              id="mode_2_F"
              d="M3134.32,474.27l-3.54-5.33a1.38,1.38,0,0,0-2-.18l-1.09.91a3.9,3.9,0,0,0-1.26,2.9l-.87,22c.56,5.07,4.72,3.43,4.72,3.43l3.74-1.86a3.49,3.49,0,0,0,1.08-2l.76-14.75A7.63,7.63,0,0,0,3134.32,474.27Z"
              transform="translate(-2593.5 91)"
              style="fill: #304246"
            />
            <path
              data-com="1"
              data-seg="15"
              id="mode_2_G"
              d="M3143,505l5-1a4.83,4.83,0,0,1,4,0l5,1a10.56,10.56,0,0,0,6,0l5-2s3-2,0-3l-4-2a13.6,13.6,0,0,0-7,0l-5,2a4.83,4.83,0,0,1-4,0l-5-2s-4-1-7,0l-5,2s-3,1,0,3l5,2A13.6,13.6,0,0,0,3143,505Z"
              transform="translate(-2593.5 91)"
              style="fill: #304246"
            />
            <polygon
              data-com="1"
              data-seg="14"
              id="mode_2_H"
              points="552.5 570 562.5 570 561.5 585 556.5 588 551.5 585 552.5 570"
              style="fill: #304246"
            />
            <polygon
              data-com="1"
              data-seg="14"
              id="mode_2_I"
              points="559.5 617 549.5 617 550.5 600 555.5 597 560.5 600 559.5 617"
              style="fill: #304246"
            />
            <path
              data-com="0"
              data-seg="15"
              id="mode_2_J"
              d="m 620.5,628 3,-6 c 0.539,-0.544 1.242,-0.895 2,-1 h 3 c 0.768,0.073 1.481,0.429 2,1 l 3,7 c 0,0 1,1 -1,1 h -11 c -2,0 -1,-2 -1,-2 z"
              transform="translate(-104 0)"
              style="fill: #304246"
            />
          </g>
          <g id="mode_1">
            <path
              data-com="0"
              data-seg="11"
              id="mode_1_A"
              d="M3242,469l-4,6a3.49,3.49,0,0,1-2,1h-21a3.1,3.1,0,0,1-2-1l-5-7s-1-1,1-1h32C3243,467,3242,469,3242,469Z"
              transform="translate(-2593.5 91)"
              style="fill: #304246"
            />
            <path
              data-com="1"
              data-seg="11"
              id="mode_1_B"
              d="M3241,475l4-5a1.39,1.39,0,0,1,2,0l1,1a3.89,3.89,0,0,1,1,3l-1,21c-1,5-5,3-5,3l-3.56-2.19a3.45,3.45,0,0,1-.9-2L3239,480A7.65,7.65,0,0,1,3241,475Z"
              transform="translate(-2593.5 91)"
              style="fill: #304246"
            />
            <path
              data-com="1"
              data-seg="11"
              id="mode_1_C"
              d="M3238,530.47l3.51,6a1.28,1.28,0,0,0,2,.19l1.09-1a4.66,4.66,0,0,0,1.28-3.29l1-23.8c-.53-5.75-4.7-3.87-4.7-3.87l-3.75,2.13a4.09,4.09,0,0,0-1.09,2.23l-.83,15.59A9.28,9.28,0,0,0,3238,530.47Z"
              transform="translate(-2593.5 91)"
              style="fill: #304246"
            />
            <path
              data-com="2"
              data-seg="11"
              id="mode_1_D"
              d="M3205,538l4-6a3.49,3.49,0,0,1,2-1h22a3.1,3.1,0,0,1,2,1l5,7s1,1-1,1h-33C3204,540,3205,538,3205,538Z"
              transform="translate(-2593.5 91)"
              style="fill: #304246"
            />
            <path
              data-com="1"
              data-seg="12"
              id="mode_1_E"
              d="M3207.4,530.78l-4,5.63a1.29,1.29,0,0,1-2,0l-1-1.11a4.58,4.58,0,0,1-1-3.36l1.12-23.57c1-5.61,5-3.39,5-3.39l3.55,2.43a4.11,4.11,0,0,1,.89,2.29l-.55,15.45A9.15,9.15,0,0,1,3207.4,530.78Z"
              transform="translate(-2593.5 91)"
              style="fill: #304246"
            />
            <path
              data-com="1"
              data-seg="12"
              id="mode_1_F"
              d="M3210.32,475.27l-3.54-5.33a1.38,1.38,0,0,0-2-.18l-1.09.91a3.9,3.9,0,0,0-1.26,2.9l-.87,21c.56,5.07,4.72,3.43,4.72,3.43l3.74-1.86a3.49,3.49,0,0,0,1.08-2l.76-13.75A7.63,7.63,0,0,0,3210.32,475.27Z"
              transform="translate(-2593.5 91)"
              style="fill: #304246"
            />
            <path
              data-com="2"
              data-seg="12"
              id="mode_1_G"
              d="M3216,497h17a12.13,12.13,0,0,1,5,1l4,2c3,1,0,3,0,3l-5,2a10,10,0,0,1-4,1h-17a10.34,10.34,0,0,1-4-1l-5-2c-3-2,0-3,0-3l5-2A10,10,0,0,1,3216,497Z"
              transform="translate(-2593.5 91)"
              style="fill: #304246"
            />
            <path
              data-com="0"
              data-seg="12"
              id="mode_1_H"
              d="M3202,469l-3,6a3.49,3.49,0,0,1-2,1h-3a3.1,3.1,0,0,1-2-1l-3-7s-1-1,1-1h11C3203,467,3202,469,3202,469Z"
              transform="translate(-2593.5 91)"
              style="fill: #304246"
            />
          </g>
        </g>
        <g id="lap">
          <path
            data-com="1"
            data-seg="10"
            d="M3297.93,536.73h17.61v5.81h-25v-34.6h7.41Z"
            transform="translate(-2593.5 91)"
            style="fill: #304246"
          />
          <path
            data-com="1"
            data-seg="10"
            d="M3329,535.9l-2.34,6.64h-7.58l12.65-34.6h10.72l12.88,34.6h-7.41l-2.45-6.64Zm8.21-22.87-6.5,17.94h13.11Z"
            transform="translate(-2593.5 91)"
            style="fill: #304246"
          />
          <path
            data-com="1"
            data-seg="10"
            d="M3361.94,507.94h15.22q7.64.06,11.29,2.05t3.64,9.78c0,.45,0,.92,0,1.4s-.05,1-.09,1.45a13.26,13.26,0,0,1-.71,3.53,6.55,6.55,0,0,1-2.14,3,8.07,8.07,0,0,1-3.85,1.84,24.44,24.44,0,0,1-4.41.39,3.83,3.83,0,0,1-.6,0H3369v11.15h-7.07Zm15.34,17.69a13.87,13.87,0,0,0,5.72-.75c1.12-.54,1.69-2.19,1.69-5,0-2.56-.39-4.26-1.15-5.09s-2.6-1.24-5.52-1.24h-9v12Z"
            transform="translate(-2593.5 91)"
            style="fill: #304246"
          />
        </g>
        <g id="timemode_24H">
          <path
            data-com="2"
            data-seg="16"
            d="M3018.51,550.54h-17.6V545q0-4.51,1.75-5.8a12.09,12.09,0,0,1,4.93-1.89,3.09,3.09,0,0,1,.46-.12l.49-.08a6,6,0,0,1,.82-.12,7.37,7.37,0,0,0,.75-.12,6.8,6.8,0,0,0,3.1-1.05c.69-.51,1-1.77,1-3.78s-.33-3.31-1-3.73a7.11,7.11,0,0,0-3.49-.62,6.73,6.73,0,0,0-3.71.7c-.63.47-.94,1.82-.94,4v.84h-4.2V532c0-.24,0-.49,0-.74s0-.5,0-.74a13.83,13.83,0,0,1,.46-3,4.3,4.3,0,0,1,1.61-2.34,6.36,6.36,0,0,1,2.2-1.08,12.5,12.5,0,0,1,2.42-.41c.37,0,.73,0,1.08,0h1.05a12.24,12.24,0,0,1,6.5,1.43c1.5.94,2.25,3.25,2.25,6.91s-.66,5.88-2,6.78a13,13,0,0,1-5.06,1.91l-2,.34a17.28,17.28,0,0,0-2.13.51,2.41,2.41,0,0,0-1.91,1.48,10.28,10.28,0,0,0-.3,2.74v.69h13.37Z"
            transform="translate(-2593.5 91)"
            style="fill: #304246"
          />
          <path
            data-com="2"
            data-seg="16"
            d="M3042.35,540.92h2.73v3.83h-2.73v5.79h-4.2v-5.79h-12.71v-5.56l10.36-15.5h6.55Zm-4.27-13.48-9.1,13.48h9.17Z"
            transform="translate(-2593.5 91)"
            style="fill: #304246"
          />
          <path
            data-com="2"
            data-seg="16"
            d="M3071.71,550.54h-4.48V539.07h-10.88v11.47h-4.45V523.69h4.45v11h10.88v-11h4.48Z"
            transform="translate(-2593.5 91)"
            style="fill: #304246"
          />
        </g>
        <g id="timemode_PM">
          <path
            data-com="2"
            data-seg="17"
            d="M2922.93,514.49h12.55q6.3.06,9.31,2.14t3,10.18c0,.47,0,1,0,1.46s0,1-.07,1.52a16.64,16.64,0,0,1-.59,3.67,6.84,6.84,0,0,1-1.76,3.08,6.22,6.22,0,0,1-3.17,1.92,16.25,16.25,0,0,1-3.64.41,2.73,2.73,0,0,1-.5,0h-9.28v11.62h-5.83Zm12.65,18.43a9.35,9.35,0,0,0,4.72-.78c.92-.56,1.39-2.28,1.39-5.16,0-2.67-.32-4.44-.94-5.3s-2.15-1.3-4.56-1.3h-7.43v12.54Z"
            transform="translate(-2593.5 91)"
            style="fill: #304246"
          />
          <path
            data-com="2"
            data-seg="17"
            d="M2988.83,550.54H2983l.19-30.37-9.87,30.37h-5.41l-10-30.21.28,30.21h-5.87v-36h9.68l8.46,26.76h.19l8.37-26.76h9.87Z"
            transform="translate(-2593.5 91)"
            style="fill: #304246"
          />
        </g>
        <g id="alarm">
          <path
            data-com="0"
            data-seg="16"
            id="alarm_inside"
            d="M3056,494.06c-3.84,0-4.77-4.95-4.77-4.95V476.42c0-6.45-6.71-6.45-6.71-6.45h-3.19v-4.5h-5V470h-3.2s-6.7,0-6.7,6.45v12.69s-.91,4.95-4.77,4.95v4.61H3036a6.21,6.21,0,0,0-1.27,3.84c0,3,1.92,5.39,4.28,5.39s4.27-2.42,4.27-5.39a6.31,6.31,0,0,0-1.23-3.84h14Zm-8,.94h-18V476a2.94,2.94,0,0,1,3-3h12a2.94,2.94,0,0,1,3,3Z"
            transform="translate(-2593.5 91)"
            style="fill: #304246"
          />
        </g>
        <g id="signal">
          <path
            data-com="0"
            data-seg="17"
            id="signal_5"
            d="M2992.68,498.36c1,0,1.75-6.25,1.75-14s-.78-13.95-1.75-13.95h-6c.94,0,1.73,6.25,1.73,13.95s-.79,14-1.73,14h6"
            transform="translate(-2593.5 91)"
            style="fill: #304246"
          />
          <path
            data-com="0"
            data-seg="17"
            id="signal_4"
            d="M2979.8,498.36c.95,0,1.74-6.25,1.74-14s-.79-13.95-1.74-13.95h-7.41c1,0,1.76,6.25,1.76,13.95s-.79,14-1.76,14h7.41"
            transform="translate(-2593.5 91)"
            style="fill: #304246"
          />
          <path
            data-com="0"
            data-seg="17"
            id="signal_3"
            d="M2964.16,498.36c1.48,0,2.67-6.25,2.67-14s-1.19-13.95-2.67-13.95h-7.78c1.48,0,2.67,6.25,2.67,13.95s-1.19,14-2.67,14h7.78"
            transform="translate(-2593.5 91)"
            style="fill: #304246"
          />
          <path
            data-com="0"
            data-seg="17"
            id="signal_2"
            d="M2948,498.36c2.58,0,4.71-6.25,4.71-14s-2.13-13.95-4.71-13.95h-8.33c2.59,0,4.71,6.25,4.71,13.95s-2.12,14-4.71,14H2948"
            transform="translate(-2593.5 91)"
            style="fill: #304246"
          />
          <path
            data-com="0"
            data-seg="17"
            id="signal_1"
            d="M2932.78,498.36c2.61,0,4.71-6.25,4.71-14s-2.1-13.95-4.71-13.95H2923V498.3l9.78.06"
            transform="translate(-2593.5 91)"
            style="fill: #304246"
          />
        </g>
      </g>
      <g id="custom"></g>
    </g>
  </g>
</svg>
